<svg width="1664" height="1118" viewBox="0 0 1664 1118" fill="none" xmlns="http://www.w3.org/2000/svg">
    <g filter="url(#filter0_f_8615_5)">
    <path d="M200 712.151C200 598.464 292.162 506.303 405.849 506.303H897.009C1010.7 506.303 1102.86 598.464 1102.86 712.151V712.151C1102.86 825.838 1010.7 918 897.008 918H405.849C292.162 918 200 825.838 200 712.151V712.151Z" fill="#5F9AD1" fill-opacity="0.239216"/>
    <path d="M561.143 405.849C561.143 292.162 763.254 200 1012.57 200C1261.89 200 1464 292.162 1464 405.849C1464 519.536 1261.89 611.697 1012.57 611.697C763.254 611.697 561.143 519.536 561.143 405.849Z" fill="#5F9AD1" fill-opacity="0.239216"/>
    </g>
    <defs>
    <filter id="filter0_f_8615_5" x="0" y="0" width="1664" height="1118" filterUnits="userSpaceOnUse" color-interpolation-filters="sRGB">
    <feFlood flood-opacity="0" result="BackgroundImageFix"/>
    <feBlend mode="normal" in="SourceGraphic" in2="BackgroundImageFix" result="shape"/>
    <feGaussianBlur stdDeviation="100" result="effect1_foregroundBlur_8615_5"/>
    </filter>
    </defs>
    </svg>
    
    