<svg width="110" height="151" viewBox="0 0 150 151" fill="none" xmlns="http://www.w3.org/2000/svg">
    <rect x="0.5" y="0.780029" width="149" height="149" rx="74.5" fill="url(#paint0_linear_6512_1853)"/>
    <rect x="0.5" y="0.780029" width="149" height="149" rx="74.5" stroke="#C9C9DD"/>
    <g clip-path="url(#clip0_6512_1853)">
    <path d="M94.9736 56.3967H101.39C101.757 56.3967 102.032 56.2745 102.215 56.03C102.399 55.7856 102.49 55.5411 102.49 55.2967V48.88C102.49 48.5134 102.399 48.2384 102.215 48.055C102.032 47.8717 101.757 47.78 101.39 47.78H94.9736C94.7291 47.78 94.4847 47.8717 94.2402 48.055C93.9958 48.2384 93.8736 48.5134 93.8736 48.88V50.8967H79.2069V48.88C79.2069 48.5134 79.1152 48.2384 78.9319 48.055C78.7486 47.8717 78.4736 47.78 78.1069 47.78H71.8736C71.5069 47.78 71.2319 47.8717 71.0486 48.055C70.8652 48.2384 70.7736 48.5134 70.7736 48.88V50.8967H56.1069V48.88C56.1069 48.5134 55.9847 48.2384 55.7402 48.055C55.4958 47.8717 55.2513 47.78 55.0069 47.78H48.5902C48.2236 47.78 47.9486 47.8717 47.7652 48.055C47.5819 48.2384 47.4902 48.5134 47.4902 48.88V55.2967C47.4902 55.5411 47.5819 55.7856 47.7652 56.03C47.9486 56.2745 48.2236 56.3967 48.5902 56.3967H55.0069C55.2513 56.3967 55.4958 56.2745 55.7402 56.03C55.9847 55.7856 56.1069 55.5411 56.1069 55.2967V53.0967H64.9069C61.7291 54.5634 58.9791 56.6411 56.6569 59.33C54.8236 61.4078 53.418 63.73 52.4402 66.2967C51.4625 68.8634 50.9125 71.4911 50.7902 74.18H48.5902C48.2236 74.18 47.9486 74.3023 47.7652 74.5467C47.5819 74.7911 47.4902 75.0356 47.4902 75.28V81.6967C47.4902 81.9411 47.5819 82.1856 47.7652 82.43C47.9486 82.6745 48.2236 82.7967 48.5902 82.7967H55.0069C55.2513 82.7967 55.4958 82.6745 55.7402 82.43C55.9847 82.1856 56.1069 81.9411 56.1069 81.6967V75.28C56.1069 75.0356 55.9847 74.7911 55.7402 74.5467C55.4958 74.3023 55.2513 74.18 55.0069 74.18H52.8069C53.0513 70.88 53.968 67.7634 55.5569 64.83C57.1458 61.8967 59.2541 59.4523 61.8819 57.4967C64.5097 55.5411 67.4736 54.1967 70.7736 53.4634V55.2967C70.7736 55.5411 70.8652 55.7856 71.0486 56.03C71.2319 56.2745 71.5069 56.3967 71.8736 56.3967H78.1069C78.4736 56.3967 78.7486 56.2745 78.9319 56.03C79.1152 55.7856 79.2069 55.5411 79.2069 55.2967V53.4634C82.5069 54.1967 85.4708 55.5411 88.0986 57.4967C90.7263 59.4523 92.8347 61.8967 94.4236 64.83C96.0125 67.7634 96.9291 70.88 97.1736 74.18H94.9736C94.7291 74.18 94.4847 74.3023 94.2402 74.5467C93.9958 74.7911 93.8736 75.0356 93.8736 75.28V81.6967C93.8736 81.9411 93.9958 82.1856 94.2402 82.43C94.4847 82.6745 94.7291 82.7967 94.9736 82.7967H101.39C101.757 82.7967 102.032 82.6745 102.215 82.43C102.399 82.1856 102.49 81.9411 102.49 81.6967V75.28C102.49 75.0356 102.399 74.7911 102.215 74.5467C102.032 74.3023 101.757 74.18 101.39 74.18H99.1902C99.068 71.4911 98.518 68.8634 97.5402 66.2967C96.5625 63.73 95.1569 61.4078 93.3236 59.33C91.0013 56.6411 88.2513 54.5634 85.0736 53.0967H93.8736V55.2967C93.8736 55.5411 93.9958 55.7856 94.2402 56.03C94.4847 56.2745 94.7291 56.3967 94.9736 56.3967ZM53.9069 54.1967H49.6902V49.98H53.9069V54.1967ZM53.9069 80.5967H49.6902V76.38H53.9069V80.5967ZM100.29 80.5967H96.0736V76.38H100.29V80.5967ZM77.1902 54.1967H72.7902V49.98H77.1902V54.1967ZM96.0736 49.98H100.29V54.1967H96.0736V49.98ZM75.9069 59.6967C75.6625 59.33 75.3569 59.1467 74.9902 59.1467C74.6236 59.1467 74.318 59.33 74.0736 59.6967L69.6736 67.7634C69.4291 68.0078 69.368 68.2828 69.4902 68.5884C69.6125 68.8939 69.7958 69.1078 70.0402 69.23C70.2847 69.3522 70.5597 69.3828 70.8652 69.3217C71.1708 69.2606 71.3847 69.0467 71.5069 68.68L73.8902 64.28V72.1634C73.1569 72.4078 72.5458 72.8661 72.0569 73.5384C71.568 74.2106 71.3236 75.005 71.3236 75.9217C71.3236 76.8384 71.6902 77.6328 72.4236 78.305C73.1569 78.9773 74.0125 79.3134 74.9902 79.3134C75.968 79.3134 76.8236 78.9773 77.5569 78.305C78.2902 77.6328 78.6569 76.8384 78.6569 75.9217C78.6569 75.005 78.4125 74.2106 77.9236 73.5384C77.4347 72.8661 76.8236 72.4078 76.0902 72.1634V64.28L83.4236 77.6634C80.9791 80.23 79.3902 83.2245 78.6569 86.6467H71.3236C70.5902 83.2245 69.0013 80.23 66.5569 77.6634L67.8402 75.4634C67.9625 75.2189 67.9625 74.9439 67.8402 74.6384C67.718 74.3328 67.5347 74.1189 67.2902 73.9967C67.0458 73.8745 66.8013 73.8439 66.5569 73.905C66.3125 73.9661 66.068 74.1189 65.8236 74.3634L64.3569 77.2967C63.9902 77.7856 64.0513 78.2745 64.5402 78.7634C66.8625 80.8411 68.3902 83.4689 69.1236 86.6467H68.0236C67.168 86.6467 66.4347 86.9523 65.8236 87.5634C65.2125 88.1745 64.9069 88.9689 64.9069 89.9467C64.9069 90.5578 65.0597 91.1078 65.3652 91.5967C65.6708 92.0856 66.068 92.4523 66.5569 92.6967V101.68C66.5569 102.047 66.6791 102.322 66.9236 102.505C67.168 102.688 67.443 102.78 67.7486 102.78C68.0541 102.78 68.2986 102.688 68.4819 102.505C68.6652 102.322 68.7569 102.047 68.7569 101.68V93.0634H81.2236V101.68C81.2236 102.047 81.3152 102.322 81.4986 102.505C81.6819 102.688 81.9263 102.78 82.2319 102.78C82.5375 102.78 82.8125 102.688 83.0569 102.505C83.3013 102.322 83.4236 102.047 83.4236 101.68V92.6967C83.9125 92.4523 84.3097 92.0856 84.6152 91.5967C84.9208 91.1078 85.0736 90.5578 85.0736 89.9467C85.0736 88.9689 84.768 88.1745 84.1569 87.5634C83.5458 86.9523 82.8125 86.6467 81.9569 86.6467H80.8569C81.5902 83.4689 83.118 80.8411 85.4402 78.7634C85.9291 78.2745 85.9902 77.7856 85.6236 77.2967L75.9069 59.6967ZM74.9902 77.2967C74.6236 77.2967 74.2875 77.1439 73.9819 76.8384C73.6763 76.5328 73.5236 76.1661 73.5236 75.7384C73.5236 75.3106 73.6763 74.9439 73.9819 74.6384C74.2875 74.3328 74.6236 74.18 74.9902 74.18C75.3569 74.18 75.693 74.3328 75.9986 74.6384C76.3041 74.9439 76.4569 75.3106 76.4569 75.7384C76.4569 76.1661 76.3041 76.5328 75.9986 76.8384C75.693 77.1439 75.3569 77.2967 74.9902 77.2967ZM83.0569 89.9467C83.0569 90.1911 82.9347 90.4356 82.6902 90.68C82.4458 90.9245 82.2013 91.0467 81.9569 91.0467H68.0236C67.7791 91.0467 67.5347 90.9245 67.2902 90.68C67.0458 90.4356 66.9236 90.1606 66.9236 89.855C66.9236 89.5495 67.0458 89.305 67.2902 89.1217C67.5347 88.9384 67.7791 88.8467 68.0236 88.8467H81.9569C82.2013 88.8467 82.4458 88.9384 82.6902 89.1217C82.9347 89.305 83.0569 89.58 83.0569 89.9467ZM68.5736 72.7134C68.9402 72.7134 69.2152 72.6217 69.3986 72.4384C69.5819 72.255 69.6736 72.0106 69.6736 71.705C69.6736 71.3995 69.5819 71.1245 69.3986 70.88C69.2152 70.6356 68.9708 70.5134 68.6652 70.5134C68.3597 70.5134 68.0847 70.6356 67.8402 70.88C67.5958 71.1245 67.4736 71.3995 67.4736 71.705C67.4736 72.0106 67.5958 72.255 67.8402 72.4384C68.0847 72.6217 68.3291 72.7134 68.5736 72.7134Z" fill="#7F7E97"/>
    </g>
    <g clip-path="url(#clip1_6512_1853)">
    <g clip-path="url(#clip2_6512_1853)">
    <path d="M123 40.7034C122.494 41.0803 122.241 41.4572 121.987 41.5829C120.722 42.0855 119.456 42.588 118.19 43.0906C116.291 43.7188 115.152 44.9753 114.899 46.9856C114.646 48.619 114.392 50.2524 114.013 51.8858C113.886 52.3883 113.506 53.1422 113.127 53.2679C112.367 53.3935 112.367 52.514 112.24 52.0114C111.734 50.5037 111.228 48.8703 110.848 47.3625C110.215 45.2266 108.823 44.0958 106.544 44.0958C105.658 44.0958 104.899 43.9701 104.013 43.8445C103.506 43.8445 103.253 43.5932 103 43.3419C103.253 43.0906 103.38 42.7137 103.633 42.588C104.899 42.0855 106.291 41.5829 107.557 41.2059C108.823 40.829 109.709 39.9495 109.962 38.693C110.468 36.6828 110.848 34.6724 111.354 32.7878C111.608 32.1595 111.354 31.28 112.24 31.28C113.127 31.28 113 32.0339 113.127 32.5365C113.506 34.2955 113.886 35.9289 114.392 37.6879C115.025 39.9495 115.532 40.3264 117.937 40.3264C119.203 40.3264 120.595 40.2008 121.861 40.2008C121.987 40.2008 122.367 40.4521 123 40.7034Z" fill="#CECCFD"/>
    <path d="M103 31.9917C102.747 32.1802 102.62 32.3686 102.494 32.4315C101.861 32.6828 101.228 32.934 100.595 33.1853C99.6456 33.4994 99.0759 34.1277 98.9494 35.1328C98.8228 35.9495 98.6962 36.7662 98.5063 37.5829C98.443 37.8342 98.2532 38.2111 98.0633 38.2739C97.6835 38.3368 97.6835 37.897 97.6203 37.6457C97.3671 36.8919 97.1139 36.0752 96.9241 35.3213C96.6076 34.2533 95.9114 33.6879 94.7722 33.6879C94.3291 33.6879 93.9494 33.6251 93.5063 33.5623C93.2532 33.5623 93.1266 33.4366 93 33.311C93.1266 33.1853 93.1899 32.9969 93.3165 32.934C93.9494 32.6828 94.6456 32.4315 95.2785 32.243C95.9114 32.0545 96.3544 31.6148 96.481 30.9865C96.7342 29.9814 96.924 28.9762 97.1772 28.0339C97.3038 27.7198 97.1772 27.28 97.6203 27.28C98.0633 27.28 98 27.657 98.0633 27.9083C98.2532 28.7878 98.443 29.6045 98.6962 30.484C99.0127 31.6148 99.2658 31.8032 100.468 31.8032C101.101 31.8032 101.797 31.7404 102.43 31.7404C102.494 31.7404 102.684 31.8661 103 31.9917Z" fill="#CECCFD"/>
    </g>
    </g>
    <defs>
    <linearGradient id="paint0_linear_6512_1853" x1="75" y1="0.280029" x2="75" y2="150.28" gradientUnits="userSpaceOnUse">
    <stop stop-color="white"/>
    <stop offset="1" stop-color="#F1F1FA"/>
    </linearGradient>
    <clipPath id="clip0_6512_1853">
    <rect width="55.02" height="55" fill="white" transform="matrix(1 0 0 -1 47.4805 102.78)"/>
    </clipPath>
    <clipPath id="clip1_6512_1853">
    <rect width="30" height="26" fill="white" transform="translate(93 27.28)"/>
    </clipPath>
    <clipPath id="clip2_6512_1853">
    <rect width="30" height="26" fill="white" transform="translate(93 27.28)"/>
    </clipPath>
    </defs>
    </svg>
    