<svg width="110" height="151" viewBox="0 0 150 151" fill="none" xmlns="http://www.w3.org/2000/svg">
    <rect x="0.5" y="0.780029" width="149" height="149" rx="74.5" fill="url(#paint0_linear_6512_1908)"/>
    <rect x="0.5" y="0.780029" width="149" height="149" rx="74.5" stroke="#C9C9DD"/>
    <g clip-path="url(#clip0_6512_1908)">
    <path d="M88.0986 95.8133C87.7319 95.8133 87.4875 95.6911 87.3652 95.4467C86.8763 94.5911 86.2041 93.98 85.3486 93.6133L81.4986 91.9633C81.2541 91.9633 81.1013 91.8411 81.0402 91.5967C80.9791 91.3522 80.9791 91.1078 81.0402 90.8633C81.1013 90.6189 81.2541 90.4661 81.4986 90.405C81.743 90.3439 81.9875 90.3744 82.2319 90.4967L85.8986 91.9633C87.1208 92.5744 88.0986 93.43 88.8319 94.53C88.9541 94.7744 88.9847 95.0189 88.9236 95.2633C88.8625 95.5078 88.7402 95.6606 88.5569 95.7217C88.3736 95.7828 88.2208 95.8133 88.0986 95.8133ZM70.4986 95.8133C70.3763 95.8133 70.2236 95.7828 70.0402 95.7217C69.8569 95.6606 69.7347 95.5078 69.6736 95.2633C69.6125 95.0189 69.643 94.7744 69.7652 94.53C70.3763 93.43 71.293 92.5744 72.5152 91.9633L76.3652 90.4967C76.6097 90.3744 76.8236 90.3439 77.0069 90.405C77.1902 90.4661 77.343 90.6189 77.4652 90.8633C77.5875 91.1078 77.5875 91.3217 77.4652 91.505C77.343 91.6883 77.2208 91.8411 77.0986 91.9633L73.2486 93.6133C72.393 93.98 71.7208 94.5911 71.2319 95.4467C70.9875 95.6911 70.743 95.8133 70.4986 95.8133ZM81.8652 91.9633C81.6208 91.9633 81.4069 91.8717 81.2236 91.6883C81.0402 91.505 80.9486 91.2911 80.9486 91.0467V88.1133C80.9486 87.8689 81.0708 87.6244 81.3152 87.38C82.1708 86.7689 82.5986 85.9133 82.5986 84.8133V82.0633C82.5986 81.2078 82.2625 80.4439 81.5902 79.7717C80.918 79.0994 80.1236 78.7633 79.2069 78.7633C78.2902 78.7633 77.4958 79.0994 76.8236 79.7717C76.1513 80.4439 75.8152 81.2078 75.8152 82.0633V84.8133C75.8152 85.9133 76.243 86.7689 77.0986 87.38C77.343 87.6244 77.4652 87.8689 77.4652 88.1133V91.0467C77.4652 91.2911 77.4041 91.505 77.2819 91.6883C77.1597 91.8717 76.9763 91.9633 76.7319 91.9633C76.4875 91.9633 76.2736 91.8717 76.0902 91.6883C75.9069 91.505 75.8152 91.2911 75.8152 91.0467V88.48C74.7152 87.5022 74.1652 86.28 74.1652 84.8133V82.0633C74.1652 80.7189 74.6541 79.5272 75.6319 78.4883C76.6097 77.4494 77.8013 76.93 79.2069 76.93C80.6125 76.93 81.8347 77.4494 82.8736 78.4883C83.9125 79.5272 84.4319 80.7189 84.4319 82.0633V84.8133C84.4319 86.28 83.8208 87.5022 82.5986 88.48V91.0467C82.5986 91.2911 82.5375 91.505 82.4152 91.6883C82.293 91.8717 82.1097 91.9633 81.8652 91.9633ZM80.0319 89.7633C79.6652 89.7633 79.4208 89.6106 79.2986 89.305C79.1763 88.9994 79.2069 88.7244 79.3902 88.48C79.5736 88.2356 79.7263 88.1133 79.8486 88.1133C80.7041 87.9911 81.3763 87.5939 81.8652 86.9217C82.3541 86.2494 82.5986 85.5467 82.5986 84.8133C82.5986 84.5689 82.6902 84.355 82.8736 84.1717C83.0569 83.9883 83.2708 83.8967 83.5152 83.8967C83.7597 83.8967 83.9736 83.9883 84.1569 84.1717C84.3402 84.355 84.4319 84.5689 84.4319 84.8133C84.4319 86.0356 84.0347 87.105 83.2402 88.0217C82.4458 88.9383 81.4375 89.5189 80.2152 89.7633H80.0319ZM75.9986 75.28C75.6319 75.28 75.3875 75.1578 75.2652 74.9133C74.7763 74.0578 74.1041 73.4467 73.2486 73.08L69.3986 71.43C69.2763 71.3078 69.1541 71.1244 69.0319 70.88C68.9097 70.6356 68.9097 70.4217 69.0319 70.2383C69.1541 70.055 69.3069 69.9022 69.4902 69.78C69.6736 69.6578 69.8875 69.6578 70.1319 69.78L73.9819 71.43C75.2041 71.9189 76.1208 72.7744 76.7319 73.9967C76.8541 74.2411 76.8847 74.455 76.8236 74.6383C76.7625 74.8217 76.6402 74.9744 76.4569 75.0967C76.2736 75.2189 76.1208 75.28 75.9986 75.28ZM58.3986 75.28C58.2763 75.28 58.1236 75.2189 57.9402 75.0967C57.7569 74.9744 57.6347 74.8217 57.5736 74.6383C57.5125 74.455 57.543 74.2411 57.6652 73.9967C58.3986 72.7744 59.3763 71.9189 60.5986 71.43L64.2652 69.78C64.5097 69.6578 64.7541 69.6578 64.9986 69.78C65.243 69.9022 65.3958 70.055 65.4569 70.2383C65.518 70.4217 65.518 70.6356 65.4569 70.88C65.3958 71.1244 65.243 71.3078 64.9986 71.43L61.1486 73.08C60.293 73.4467 59.6208 74.0578 59.1319 74.9133C59.0097 75.1578 58.7652 75.28 58.3986 75.28ZM69.7652 71.2467C69.5208 71.2467 69.3069 71.1856 69.1236 71.0633C68.9402 70.9411 68.8486 70.7578 68.8486 70.5133V67.58C68.8486 67.2133 68.9708 66.9689 69.2152 66.8467C70.193 66.1133 70.6819 65.1967 70.6819 64.0967V61.53C70.6819 60.5522 70.3458 59.7272 69.6736 59.055C69.0013 58.3828 68.1763 58.0467 67.1986 58.0467C66.2208 58.0467 65.3958 58.3828 64.7236 59.055C64.0513 59.7272 63.7152 60.5522 63.7152 61.53V64.0967C63.7152 65.1967 64.2041 66.1133 65.1819 66.8467C65.4263 66.9689 65.5486 67.2133 65.5486 67.58V70.5133C65.5486 70.7578 65.4569 70.9411 65.2736 71.0633C65.0902 71.1856 64.8763 71.2467 64.6319 71.2467C64.3875 71.2467 64.1736 71.1856 63.9902 71.0633C63.8069 70.9411 63.7152 70.7578 63.7152 70.5133V67.9467C62.6152 66.9689 62.0652 65.6856 62.0652 64.0967V61.53C62.0652 60.0633 62.5541 58.8411 63.5319 57.8633C64.5097 56.8856 65.7319 56.3967 67.1986 56.3967C68.6652 56.3967 69.8875 56.8856 70.8652 57.8633C71.843 58.8411 72.3319 60.0633 72.3319 61.53V64.0967C72.3319 65.6856 71.7819 66.9689 70.6819 67.9467V70.5133C70.6819 70.7578 70.5902 70.9411 70.4069 71.0633C70.2236 71.1856 70.0097 71.2467 69.7652 71.2467ZM68.1152 69.23C67.6263 69.23 67.3513 69.0467 67.2902 68.68C67.2291 68.3133 67.2597 68.0383 67.3819 67.855C67.5041 67.6717 67.6875 67.5189 67.9319 67.3967C68.6652 67.2744 69.3069 66.9078 69.8569 66.2967C70.4069 65.6856 70.6819 64.9522 70.6819 64.0967C70.6819 63.8522 70.7736 63.6383 70.9569 63.455C71.1402 63.2717 71.3541 63.18 71.5986 63.18C71.843 63.18 72.0263 63.2717 72.1486 63.455C72.2708 63.6383 72.3319 63.8522 72.3319 64.0967C72.3319 65.3189 71.9652 66.4189 71.2319 67.3967C70.4986 68.3744 69.5208 68.9856 68.2986 69.23H68.1152ZM67.1986 78.7633C64.7541 78.7633 62.4625 78.1522 60.3236 76.93C58.1847 75.7078 56.5041 74.0272 55.2819 71.8883C54.0597 69.7494 53.4486 67.4272 53.4486 64.9217C53.4486 62.4161 54.0597 60.1244 55.2819 58.0467C56.5041 55.9689 58.1847 54.3189 60.3236 53.0967C62.4625 51.8744 64.7541 51.2633 67.1986 51.2633C69.643 51.2633 71.9347 51.8744 74.0736 53.0967C76.2125 54.3189 77.893 55.9689 79.1152 58.0467C80.3375 60.1244 80.9486 62.4161 80.9486 64.9217C80.9486 67.4272 80.3375 69.7494 79.1152 71.8883C77.893 74.0272 76.2125 75.7078 74.0736 76.93C71.9347 78.1522 69.643 78.7633 67.1986 78.7633ZM67.1986 52.9133C64.9986 52.9133 62.9819 53.4633 61.1486 54.5633C59.3152 55.6633 57.8486 57.13 56.7486 58.9633C55.6486 60.7967 55.0986 62.8133 55.0986 65.0133C55.0986 67.2133 55.6486 69.23 56.7486 71.0633C57.8486 72.8967 59.3152 74.3328 61.1486 75.3717C62.9819 76.4106 64.9986 76.93 67.1986 76.93C69.3986 76.93 71.4152 76.4106 73.2486 75.3717C75.0819 74.3328 76.5486 72.8967 77.6486 71.0633C78.7486 69.23 79.2986 67.2133 79.2986 65.0133C79.2986 62.8133 78.7486 60.7967 77.6486 58.9633C76.5486 57.13 75.0819 55.6633 73.2486 54.5633C71.4152 53.4633 69.3986 52.9133 67.1986 52.9133ZM89.9319 57.3133C89.443 57.3133 89.1375 57.1606 89.0152 56.855C88.893 56.5494 88.893 56.305 89.0152 56.1217C89.1375 55.9383 89.3208 55.7856 89.5652 55.6633C90.0541 55.4189 90.4208 55.5411 90.6652 56.03V56.2133C90.7875 56.4578 90.7875 56.6717 90.6652 56.855C90.543 57.0383 90.3597 57.1911 90.1152 57.3133H89.9319ZM62.0652 101.13C59.2541 101.13 56.8402 100.122 54.8236 98.105C52.8069 96.0883 51.7986 93.6133 51.7986 90.68V87.38H48.3152C47.9486 87.38 47.7041 87.2272 47.5819 86.9217C47.4597 86.6161 47.4597 86.28 47.5819 85.9133L53.6319 76.5633C53.7541 76.3189 53.9986 76.1967 54.3652 76.1967C54.7319 76.1967 54.9763 76.3189 55.0986 76.5633L61.1486 85.9133C61.2708 86.28 61.2402 86.6161 61.0569 86.9217C60.8736 87.2272 60.6597 87.38 60.4152 87.38H56.9319V90.68C56.9319 90.9244 56.8402 91.1383 56.6569 91.3217C56.4736 91.505 56.2597 91.5967 56.0152 91.5967C55.7708 91.5967 55.5875 91.505 55.4652 91.3217C55.343 91.1383 55.2819 90.9244 55.2819 90.68V86.4633C55.2819 86.2189 55.343 86.005 55.4652 85.8217C55.5875 85.6383 55.7708 85.5467 56.0152 85.5467H58.7652L54.3652 78.58L49.9652 85.5467H52.7152C52.8375 85.5467 52.9902 85.6383 53.1736 85.8217C53.3569 86.005 53.4486 86.2189 53.4486 86.4633V90.68C53.4486 93.1244 54.3041 95.1717 56.0152 96.8217C57.7263 98.4717 59.743 99.2967 62.0652 99.2967C64.0208 99.2967 65.793 98.6856 67.3819 97.4633C67.6263 97.3411 67.8708 97.28 68.1152 97.28C68.3597 97.28 68.543 97.3717 68.6652 97.555C68.7875 97.7383 68.8486 97.9522 68.8486 98.1967C68.8486 98.4411 68.7875 98.6244 68.6652 98.7467L68.4819 98.93C66.6486 100.397 64.5097 101.13 62.0652 101.13ZM56.5652 95.08C56.3208 95.08 56.0763 94.8967 55.8319 94.53V94.3467C55.7097 94.1022 55.7097 93.8883 55.8319 93.705C55.9541 93.5217 56.1375 93.3689 56.3819 93.2467C56.6263 93.1244 56.8402 93.1244 57.0236 93.2467C57.2069 93.3689 57.3291 93.5522 57.3902 93.7967C57.4513 94.0411 57.4513 94.255 57.3902 94.4383C57.3291 94.6217 57.1763 94.7744 56.9319 94.8967L56.5652 95.08ZM92.1319 74.3633C91.8875 74.3633 91.643 74.2411 91.3986 73.9967L85.3486 64.6467C85.2263 64.28 85.2569 63.9439 85.4402 63.6383C85.6236 63.3328 85.8375 63.18 86.0819 63.18H89.5652V59.88C89.5652 59.6356 89.6569 59.4217 89.8402 59.2383C90.0236 59.055 90.2375 58.9633 90.4819 58.9633C90.7263 58.9633 90.9097 59.055 91.0319 59.2383C91.1541 59.4217 91.2152 59.6356 91.2152 59.88V64.0967C91.2152 64.3411 91.1541 64.555 91.0319 64.7383C90.9097 64.9217 90.7263 65.0133 90.4819 65.0133H87.7319L92.1319 71.98L96.5319 65.0133H93.9652C93.7208 65.0133 93.5069 64.9217 93.3236 64.7383C93.1402 64.555 93.0486 64.3411 93.0486 64.0967V59.88C93.0486 57.4356 92.193 55.3883 90.4819 53.7383C88.7708 52.0883 86.7541 51.2633 84.4319 51.2633C82.3541 51.2633 80.5208 51.8744 78.9319 53.0967C78.8097 53.3411 78.6263 53.4328 78.3819 53.3717C78.1375 53.3106 77.9236 53.1883 77.7402 53.005C77.5569 52.8217 77.4958 52.6078 77.5569 52.3633C77.618 52.1189 77.7097 51.9356 77.8319 51.8133C79.7875 50.2244 81.9875 49.43 84.4319 49.43C87.243 49.43 89.6569 50.4383 91.6736 52.455C93.6902 54.4717 94.6986 56.9467 94.6986 59.88V63.18H98.1819C98.5486 63.18 98.793 63.3328 98.9152 63.6383C99.0375 63.9439 99.0375 64.28 98.9152 64.6467L92.8652 73.9967C92.743 74.2411 92.4986 74.3633 92.1319 74.3633ZM79.2986 99.2967C76.7319 99.2967 74.4097 98.6856 72.3319 97.4633C70.2541 96.2411 68.6041 94.5911 67.3819 92.5133C66.1597 90.4356 65.5486 88.1133 65.5486 85.5467C65.5486 83.9578 65.793 82.43 66.2819 80.9633C66.4041 80.8411 66.5569 80.7189 66.7402 80.5967C66.9236 80.4744 67.1375 80.4439 67.3819 80.505C67.6263 80.5661 67.7791 80.7189 67.8402 80.9633C67.9013 81.2078 67.9319 81.3911 67.9319 81.5133C67.443 82.8578 67.1986 84.2022 67.1986 85.5467C67.1986 87.7467 67.7486 89.7633 68.8486 91.5967C69.9486 93.43 71.4152 94.8967 73.2486 95.9967C75.0819 97.0967 77.0986 97.6467 79.2986 97.6467C81.4986 97.6467 83.5152 97.0967 85.3486 95.9967C87.1819 94.8967 88.618 93.43 89.6569 91.5967C90.6958 89.7633 91.2152 87.7467 91.2152 85.5467C91.2152 82.6133 90.2986 80.0467 88.4652 77.8467C86.6319 75.6467 84.3097 74.3022 81.4986 73.8133C81.2541 73.6911 81.0708 73.5383 80.9486 73.355C80.8263 73.1717 80.7652 72.9578 80.7652 72.7133C80.7652 72.4689 80.8875 72.2856 81.1319 72.1633C81.3763 72.0411 81.6208 72.0411 81.8652 72.1633C85.043 72.6522 87.7013 74.18 89.8402 76.7467C91.9791 79.3133 93.0486 82.2467 93.0486 85.5467C93.0486 88.1133 92.4375 90.4356 91.2152 92.5133C89.993 94.5911 88.3125 96.2411 86.1736 97.4633C84.0347 98.6856 81.743 99.2967 79.2986 99.2967Z" fill="#7F7E97"/>
    </g>
    <g clip-path="url(#clip1_6512_1908)">
    <g clip-path="url(#clip2_6512_1908)">
    <path d="M123 40.7034C122.494 41.0803 122.241 41.4572 121.987 41.5829C120.722 42.0855 119.456 42.588 118.19 43.0906C116.291 43.7188 115.152 44.9753 114.899 46.9856C114.646 48.619 114.392 50.2524 114.013 51.8858C113.886 52.3883 113.506 53.1422 113.127 53.2679C112.367 53.3935 112.367 52.514 112.24 52.0114C111.734 50.5037 111.228 48.8703 110.848 47.3625C110.215 45.2266 108.823 44.0958 106.544 44.0958C105.658 44.0958 104.899 43.9701 104.013 43.8445C103.506 43.8445 103.253 43.5932 103 43.3419C103.253 43.0906 103.38 42.7137 103.633 42.588C104.899 42.0855 106.291 41.5829 107.557 41.2059C108.823 40.829 109.709 39.9495 109.962 38.693C110.468 36.6828 110.848 34.6724 111.354 32.7878C111.608 32.1595 111.354 31.28 112.24 31.28C113.127 31.28 113 32.0339 113.127 32.5365C113.506 34.2955 113.886 35.9289 114.392 37.6879C115.025 39.9495 115.532 40.3264 117.937 40.3264C119.203 40.3264 120.595 40.2008 121.861 40.2008C121.987 40.2008 122.367 40.4521 123 40.7034Z" fill="#CECCFD"/>
    <path d="M103 31.9917C102.747 32.1802 102.62 32.3686 102.494 32.4315C101.861 32.6828 101.228 32.934 100.595 33.1853C99.6456 33.4994 99.0759 34.1277 98.9494 35.1328C98.8228 35.9495 98.6962 36.7662 98.5063 37.5829C98.443 37.8342 98.2532 38.2111 98.0633 38.2739C97.6835 38.3368 97.6835 37.897 97.6203 37.6457C97.3671 36.8919 97.1139 36.0752 96.9241 35.3213C96.6076 34.2533 95.9114 33.6879 94.7722 33.6879C94.3291 33.6879 93.9494 33.6251 93.5063 33.5623C93.2532 33.5623 93.1266 33.4366 93 33.311C93.1266 33.1853 93.1899 32.9969 93.3165 32.934C93.9494 32.6828 94.6456 32.4315 95.2785 32.243C95.9114 32.0545 96.3544 31.6148 96.481 30.9865C96.7342 29.9814 96.924 28.9762 97.1772 28.0339C97.3038 27.7198 97.1772 27.28 97.6203 27.28C98.0633 27.28 98 27.657 98.0633 27.9083C98.2532 28.7878 98.443 29.6045 98.6962 30.484C99.0127 31.6148 99.2658 31.8032 100.468 31.8032C101.101 31.8032 101.797 31.7404 102.43 31.7404C102.494 31.7404 102.684 31.8661 103 31.9917Z" fill="#CECCFD"/>
    </g>
    </g>
    <defs>
    <linearGradient id="paint0_linear_6512_1908" x1="75" y1="0.280029" x2="75" y2="150.28" gradientUnits="userSpaceOnUse">
    <stop stop-color="white"/>
    <stop offset="1" stop-color="#F1F1FA"/>
    </linearGradient>
    <clipPath id="clip0_6512_1908">
    <rect width="55.02" height="55" fill="white" transform="matrix(1 0 0 -1 47.4805 102.78)"/>
    </clipPath>
    <clipPath id="clip1_6512_1908">
    <rect width="30" height="26" fill="white" transform="translate(93 27.28)"/>
    </clipPath>
    <clipPath id="clip2_6512_1908">
    <rect width="30" height="26" fill="white" transform="translate(93 27.28)"/>
    </clipPath>
    </defs>
    </svg>
    