<svg width="110" height="151" viewBox="0 0 150 151" fill="none" xmlns="http://www.w3.org/2000/svg">
    <rect x="0.5" y="0.780029" width="149" height="149" rx="74.5" fill="url(#paint0_linear_6512_1875)"/>
    <rect x="0.5" y="0.780029" width="149" height="149" rx="74.5" stroke="#C9C9DD"/>
    <g clip-path="url(#clip0_6512_1875)">
    <path d="M95.5236 50.53H54.2736C52.4402 50.53 50.8513 51.2023 49.5069 52.5467C48.1625 53.8911 47.4902 55.5411 47.4902 57.4967V93.2467C47.4902 95.08 48.1625 96.6689 49.5069 98.0134C50.8513 99.3578 52.4402 100.03 54.2736 100.03H95.5236C97.4791 100.03 99.1291 99.3578 100.474 98.0134C101.818 96.6689 102.49 95.08 102.49 93.2467V57.4967C102.49 55.5411 101.818 53.8911 100.474 52.5467C99.1291 51.2023 97.4791 50.53 95.5236 50.53ZM54.2736 53.28H95.5236C96.7458 53.28 97.7541 53.6772 98.5486 54.4717C99.343 55.2661 99.7402 56.2745 99.7402 57.4967V58.78H50.2402V57.4967C50.2402 56.2745 50.6375 55.2661 51.4319 54.4717C52.2263 53.6772 53.1736 53.28 54.2736 53.28ZM95.5236 97.28H54.2736C53.1736 97.28 52.2263 96.8828 51.4319 96.0884C50.6375 95.2939 50.2402 94.3467 50.2402 93.2467V61.53H99.7402V93.2467C99.7402 94.3467 99.343 95.2939 98.5486 96.0884C97.7541 96.8828 96.7458 97.28 95.5236 97.28ZM78.1069 67.03C77.7402 67.03 77.3736 67.1217 77.0069 67.305C76.6402 67.4884 76.4569 67.7634 76.4569 68.13L70.9569 90.13C70.8347 90.6189 70.9569 91.0467 71.3236 91.4134C71.6902 91.78 72.118 91.9023 72.6069 91.78C73.0958 91.6578 73.4013 91.3523 73.5236 90.8634L79.0236 68.68C79.1458 68.3134 79.1152 67.9772 78.9319 67.6717C78.7486 67.3661 78.4736 67.1523 78.1069 67.03ZM66.3736 72.8967C66.1291 72.6523 65.793 72.53 65.3652 72.53C64.9375 72.53 64.6013 72.6523 64.3569 72.8967L58.8569 78.3967C58.6125 78.7634 58.4902 79.13 58.4902 79.4967C58.4902 79.8634 58.6125 80.1689 58.8569 80.4134L64.3569 85.9134C64.6013 86.1578 64.9375 86.28 65.3652 86.28C65.793 86.28 66.1291 86.1578 66.3736 85.9134C66.618 85.6689 66.7402 85.3634 66.7402 84.9967C66.7402 84.63 66.618 84.3245 66.3736 84.08L61.7902 79.4967L66.3736 74.9134C66.618 74.6689 66.7402 74.3634 66.7402 73.9967C66.7402 73.63 66.618 73.2634 66.3736 72.8967ZM85.6236 72.8967C85.3791 72.6523 85.043 72.53 84.6152 72.53C84.1875 72.53 83.8513 72.6828 83.6069 72.9884C83.3625 73.2939 83.2402 73.63 83.2402 73.9967C83.2402 74.3634 83.3625 74.6689 83.6069 74.9134L88.1902 79.4967L83.6069 84.08C83.2402 84.4467 83.118 84.8745 83.2402 85.3634C83.3625 85.8523 83.6986 86.1578 84.2486 86.28C84.7986 86.4023 85.2569 86.28 85.6236 85.9134L91.1236 80.4134C91.368 80.1689 91.4902 79.8634 91.4902 79.4967C91.4902 79.13 91.368 78.7634 91.1236 78.3967L85.6236 72.8967Z" fill="#7F7E97"/>
    </g>
    <g clip-path="url(#clip1_6512_1875)">
    <g clip-path="url(#clip2_6512_1875)">
    <path d="M123 40.7034C122.494 41.0803 122.241 41.4572 121.987 41.5829C120.722 42.0855 119.456 42.588 118.19 43.0906C116.291 43.7188 115.152 44.9753 114.899 46.9856C114.646 48.619 114.392 50.2524 114.013 51.8858C113.886 52.3883 113.506 53.1422 113.127 53.2679C112.367 53.3935 112.367 52.514 112.24 52.0114C111.734 50.5037 111.228 48.8703 110.848 47.3625C110.215 45.2266 108.823 44.0958 106.544 44.0958C105.658 44.0958 104.899 43.9701 104.013 43.8445C103.506 43.8445 103.253 43.5932 103 43.3419C103.253 43.0906 103.38 42.7137 103.633 42.588C104.899 42.0855 106.291 41.5829 107.557 41.2059C108.823 40.829 109.709 39.9495 109.962 38.693C110.468 36.6828 110.848 34.6724 111.354 32.7878C111.608 32.1595 111.354 31.28 112.24 31.28C113.127 31.28 113 32.0339 113.127 32.5365C113.506 34.2955 113.886 35.9289 114.392 37.6879C115.025 39.9495 115.532 40.3264 117.937 40.3264C119.203 40.3264 120.595 40.2008 121.861 40.2008C121.987 40.2008 122.367 40.4521 123 40.7034Z" fill="#CECCFD"/>
    <path d="M103 31.9917C102.747 32.1802 102.62 32.3686 102.494 32.4315C101.861 32.6828 101.228 32.934 100.595 33.1853C99.6456 33.4994 99.0759 34.1277 98.9494 35.1328C98.8228 35.9495 98.6962 36.7662 98.5063 37.5829C98.443 37.8342 98.2532 38.2111 98.0633 38.2739C97.6835 38.3368 97.6835 37.897 97.6203 37.6457C97.3671 36.8919 97.1139 36.0752 96.9241 35.3213C96.6076 34.2533 95.9114 33.6879 94.7722 33.6879C94.3291 33.6879 93.9494 33.6251 93.5063 33.5623C93.2532 33.5623 93.1266 33.4366 93 33.311C93.1266 33.1853 93.1899 32.9969 93.3165 32.934C93.9494 32.6828 94.6456 32.4315 95.2785 32.243C95.9114 32.0545 96.3544 31.6148 96.481 30.9865C96.7342 29.9814 96.924 28.9762 97.1772 28.0339C97.3038 27.7198 97.1772 27.28 97.6203 27.28C98.0633 27.28 98 27.657 98.0633 27.9083C98.2532 28.7878 98.443 29.6045 98.6962 30.484C99.0127 31.6148 99.2658 31.8032 100.468 31.8032C101.101 31.8032 101.797 31.7404 102.43 31.7404C102.494 31.7404 102.684 31.8661 103 31.9917Z" fill="#CECCFD"/>
    </g>
    </g>
    <defs>
    <linearGradient id="paint0_linear_6512_1875" x1="75" y1="0.280029" x2="75" y2="150.28" gradientUnits="userSpaceOnUse">
    <stop stop-color="white"/>
    <stop offset="1" stop-color="#F1F1FA"/>
    </linearGradient>
    <clipPath id="clip0_6512_1875">
    <rect width="55.02" height="55" fill="white" transform="matrix(1 0 0 -1 47.4805 102.78)"/>
    </clipPath>
    <clipPath id="clip1_6512_1875">
    <rect width="30" height="26" fill="white" transform="translate(93 27.28)"/>
    </clipPath>
    <clipPath id="clip2_6512_1875">
    <rect width="30" height="26" fill="white" transform="translate(93 27.28)"/>
    </clipPath>
    </defs>
    </svg>
    