<svg width="110" height="151" viewBox="0 0 150 151" fill="none" xmlns="http://www.w3.org/2000/svg">
    <rect x="0.5" y="0.780029" width="149" height="149" rx="74.5" fill="url(#paint0_linear_6512_1897)"/>
    <rect x="0.5" y="0.780029" width="149" height="149" rx="74.5" stroke="#C9C9DD"/>
    <g clip-path="url(#clip0_6512_1897)">
    <path d="M100.29 64.6467C99.6791 63.7911 98.9458 63.1189 98.0902 62.63C97.2347 62.1411 96.318 61.8967 95.3402 61.8967H94.9736L86.5402 75.83V67.2134C86.5402 63.7911 85.6541 60.5828 83.8819 57.5884C82.1097 54.5939 79.7263 52.2106 76.7319 50.4384C73.7375 48.6661 70.4986 47.78 67.0152 47.78C63.5319 47.78 60.293 48.6661 57.2986 50.4384C54.3041 52.2106 51.9208 54.5939 50.1486 57.5884C48.3763 60.5828 47.4902 63.7911 47.4902 67.2134V89.3967C47.4902 90.13 47.7652 90.7717 48.3152 91.3217C48.8652 91.8717 49.5069 92.1467 50.2402 92.1467H64.1736C62.218 93.1245 60.1402 93.8578 57.9402 94.3467C57.2069 94.5911 56.6263 94.9884 56.1986 95.5384C55.7708 96.0884 55.5569 96.73 55.5569 97.4634C55.5569 98.1967 55.7402 98.8689 56.1069 99.48C56.8402 100.58 57.7875 101.405 58.9486 101.955C60.1097 102.505 61.3625 102.78 62.7069 102.78H77.3736C78.4736 102.78 79.4819 102.536 80.3986 102.047C81.3152 101.558 82.0791 100.886 82.6902 100.03C84.0347 97.9523 85.1347 95.8134 85.9902 93.6134L86.5402 92.1467C87.0291 90.5578 87.7013 89.0911 88.5569 87.7467L90.3902 84.63C90.5125 84.2634 90.6958 84.08 90.9402 84.08C91.1847 84.08 91.3986 84.1717 91.5819 84.355C91.7652 84.5384 91.8569 84.7523 91.8569 84.9967V102.78H97.1736V94.8967C97.1736 92.5745 97.418 90.1911 97.9069 87.7467V87.5634C98.518 84.2634 99.5569 81.1467 101.024 78.2134C102.001 76.38 102.49 74.4245 102.49 72.3467V71.98C102.49 69.2911 101.757 66.8467 100.29 64.6467ZM66.9236 49.6134C70.2236 49.6134 73.218 50.4078 75.9069 51.9967C78.5958 53.5856 80.7347 55.7245 82.3236 58.4134C83.9125 61.1022 84.7069 64.0356 84.7069 67.2134H83.0569C83.0569 64.4023 82.3236 61.7745 80.8569 59.33C79.3902 56.8856 77.4347 54.93 74.9902 53.4634C72.5458 51.9967 69.8875 51.2634 67.0152 51.2634C64.143 51.2634 61.4847 51.9967 59.0402 53.4634C56.5958 54.93 54.6402 56.8856 53.1736 59.33C51.7069 61.7745 50.9736 64.4023 50.9736 67.2134H49.3236C49.3236 64.0356 50.118 61.1022 51.7069 58.4134C53.2958 55.7245 55.4347 53.5856 58.1236 51.9967C60.8125 50.4078 63.7458 49.6134 66.9236 49.6134ZM81.2236 67.2134H52.8069C52.8069 64.6467 53.4486 62.2939 54.7319 60.155C56.0152 58.0161 57.7263 56.305 59.8652 55.0217C62.0041 53.7384 64.3569 53.0967 66.9236 53.0967C69.4902 53.0967 71.8736 53.7384 74.0736 55.0217C76.2736 56.305 78.0152 58.0161 79.2986 60.155C80.5819 62.2939 81.2236 64.6467 81.2236 67.2134ZM49.3236 69.0467H84.7069V75.4634L72.2402 78.58V74.3634H61.6069V78.58L49.3236 75.4634V69.0467ZM63.4402 78.03V76.1967H70.5902V78.03H63.4402ZM70.5902 79.68V82.43C70.5902 82.6745 70.4986 82.8884 70.3152 83.0717C70.1319 83.255 69.918 83.3467 69.6736 83.3467H64.3569C64.1125 83.3467 63.8986 83.255 63.7152 83.0717C63.5319 82.8884 63.4402 82.6745 63.4402 82.43V79.68H70.5902ZM50.2402 90.3134C49.9958 90.3134 49.7819 90.2217 49.5986 90.0384C49.4152 89.855 49.3236 89.6411 49.3236 89.3967V77.2967L61.6069 80.4134V82.43C61.6069 83.1634 61.8819 83.7745 62.4319 84.2634C62.9819 84.7523 63.6236 84.9967 64.3569 84.9967H69.6736C70.4069 84.9967 71.018 84.7523 71.5069 84.2634C71.9958 83.7745 72.2402 83.1634 72.2402 82.43V80.4134L84.7069 77.2967V78.7634L83.4236 80.9634C82.0791 83.2856 80.4291 85.4245 78.4736 87.38C77.1291 88.7245 75.418 89.3967 73.3402 89.3967C72.2402 89.3967 71.1402 89.1523 70.0402 88.6634L69.4902 88.48L66.9236 90.4967L50.2402 90.3134ZM91.3069 82.43H91.1236C90.0236 82.43 89.2291 82.8578 88.7402 83.7134L86.9069 86.83C86.1736 88.2967 85.5013 89.8245 84.8902 91.4134L83.4236 94.8967C81.2236 96.2411 78.9013 97.2189 76.4569 97.83C74.868 98.1967 73.218 98.38 71.5069 98.38H63.4402V100.03H71.5069C73.3402 100.03 75.1125 99.8467 76.8236 99.48C78.5347 99.1134 80.2458 98.5023 81.9569 97.6467L81.2236 99.1134C80.7347 99.7245 80.1847 100.183 79.5736 100.488C78.9625 100.794 78.2291 100.947 77.3736 100.947H62.7069C61.6069 100.947 60.5069 100.641 59.4069 100.03H61.6069V98.38H57.5736C57.3291 98.1356 57.2069 97.8606 57.2069 97.555C57.2069 97.2495 57.3291 96.9439 57.5736 96.6384C57.818 96.3328 58.0625 96.18 58.3069 96.18C62.5847 95.2023 66.3736 93.3078 69.6736 90.4967H69.8569C70.9569 90.9856 72.118 91.23 73.3402 91.23C75.9069 91.23 78.0458 90.3745 79.7569 88.6634C81.8347 86.5856 83.5458 84.3245 84.8902 81.88L95.8902 63.73C97.1125 63.8522 98.0902 64.4634 98.8236 65.5634C99.6791 66.9078 100.229 68.3745 100.474 69.9634C97.0513 73.8745 93.9958 78.03 91.3069 82.43ZM99.5569 77.48C97.968 80.5356 96.868 83.7745 96.2569 87.1967L96.0736 87.38C95.5847 89.9467 95.3402 92.4523 95.3402 94.8967V100.947H93.6902V84.9967C93.6902 84.2634 93.4458 83.6523 92.9569 83.1634C95.1569 79.4967 97.7236 75.9523 100.657 72.53C100.657 74.2411 100.29 75.8911 99.5569 77.48Z" fill="#7F7E97"/>
    </g>
    <g clip-path="url(#clip1_6512_1897)">
    <g clip-path="url(#clip2_6512_1897)">
    <path d="M123 40.7034C122.494 41.0803 122.241 41.4572 121.987 41.5829C120.722 42.0855 119.456 42.588 118.19 43.0906C116.291 43.7188 115.152 44.9753 114.899 46.9856C114.646 48.619 114.392 50.2524 114.013 51.8858C113.886 52.3883 113.506 53.1422 113.127 53.2679C112.367 53.3935 112.367 52.514 112.24 52.0114C111.734 50.5037 111.228 48.8703 110.848 47.3625C110.215 45.2266 108.823 44.0958 106.544 44.0958C105.658 44.0958 104.899 43.9701 104.013 43.8445C103.506 43.8445 103.253 43.5932 103 43.3419C103.253 43.0906 103.38 42.7137 103.633 42.588C104.899 42.0855 106.291 41.5829 107.557 41.2059C108.823 40.829 109.709 39.9495 109.962 38.693C110.468 36.6828 110.848 34.6724 111.354 32.7878C111.608 32.1595 111.354 31.28 112.24 31.28C113.127 31.28 113 32.0339 113.127 32.5365C113.506 34.2955 113.886 35.9289 114.392 37.6879C115.025 39.9495 115.532 40.3264 117.937 40.3264C119.203 40.3264 120.595 40.2008 121.861 40.2008C121.987 40.2008 122.367 40.4521 123 40.7034Z" fill="#CECCFD"/>
    <path d="M103 31.9917C102.747 32.1802 102.62 32.3686 102.494 32.4315C101.861 32.6828 101.228 32.934 100.595 33.1853C99.6456 33.4994 99.0759 34.1277 98.9494 35.1328C98.8228 35.9495 98.6962 36.7662 98.5063 37.5829C98.443 37.8342 98.2532 38.2111 98.0633 38.2739C97.6835 38.3368 97.6835 37.897 97.6203 37.6457C97.3671 36.8919 97.1139 36.0752 96.9241 35.3213C96.6076 34.2533 95.9114 33.6879 94.7722 33.6879C94.3291 33.6879 93.9494 33.6251 93.5063 33.5623C93.2532 33.5623 93.1266 33.4366 93 33.311C93.1266 33.1853 93.1899 32.9969 93.3165 32.934C93.9494 32.6828 94.6456 32.4315 95.2785 32.243C95.9114 32.0545 96.3544 31.6148 96.481 30.9865C96.7342 29.9814 96.924 28.9762 97.1772 28.0339C97.3038 27.7198 97.1772 27.28 97.6203 27.28C98.0633 27.28 98 27.657 98.0633 27.9083C98.2532 28.7878 98.443 29.6045 98.6962 30.484C99.0127 31.6148 99.2658 31.8032 100.468 31.8032C101.101 31.8032 101.797 31.7404 102.43 31.7404C102.494 31.7404 102.684 31.8661 103 31.9917Z" fill="#CECCFD"/>
    </g>
    </g>
    <defs>
    <linearGradient id="paint0_linear_6512_1897" x1="75" y1="0.280029" x2="75" y2="150.28" gradientUnits="userSpaceOnUse">
    <stop stop-color="white"/>
    <stop offset="1" stop-color="#F1F1FA"/>
    </linearGradient>
    <clipPath id="clip0_6512_1897">
    <rect width="55.02" height="55" fill="white" transform="matrix(1 0 0 -1 47.4805 102.78)"/>
    </clipPath>
    <clipPath id="clip1_6512_1897">
    <rect width="30" height="26" fill="white" transform="translate(93 27.28)"/>
    </clipPath>
    <clipPath id="clip2_6512_1897">
    <rect width="30" height="26" fill="white" transform="translate(93 27.28)"/>
    </clipPath>
    </defs>
    </svg>
    