<svg width="110" height="151" viewBox="0 0 150 151" fill="none" xmlns="http://www.w3.org/2000/svg">
    <rect x="0.5" y="0.780029" width="149" height="149" rx="74.5" fill="url(#paint0_linear_6512_1886)"/>
    <rect x="0.5" y="0.780029" width="149" height="149" rx="74.5" stroke="#C9C9DD"/>
    <g clip-path="url(#clip0_6512_1886)">
    <path d="M69.4902 54.1967C69.2458 53.9523 69.0013 53.83 68.7569 53.83C68.5125 53.83 68.268 53.9217 68.0236 54.105C67.7791 54.2884 67.6569 54.5328 67.6569 54.8384C67.6569 55.1439 67.7791 55.4189 68.0236 55.6634C68.268 55.9078 68.5125 56.03 68.7569 56.03C69.0013 56.03 69.2458 55.9078 69.4902 55.6634C69.7347 55.4189 69.8569 55.1439 69.8569 54.8384C69.8569 54.5328 69.7347 54.3189 69.4902 54.1967ZM64.7236 53.83H60.5069C60.1402 53.83 59.8652 53.9217 59.6819 54.105C59.4986 54.2884 59.4069 54.5328 59.4069 54.8384C59.4069 55.1439 59.4986 55.4189 59.6819 55.6634C59.8652 55.9078 60.1402 56.03 60.5069 56.03H64.7236C65.0902 56.03 65.3652 55.9078 65.5486 55.6634C65.7319 55.4189 65.8236 55.1439 65.8236 54.8384C65.8236 54.5328 65.7319 54.2884 65.5486 54.105C65.3652 53.9217 65.0902 53.83 64.7236 53.83ZM65.6402 59.88H60.5069C60.1402 59.88 59.8652 59.9717 59.6819 60.155C59.4986 60.3384 59.4069 60.5828 59.4069 60.8884C59.4069 61.1939 59.4986 61.4384 59.6819 61.6217C59.8652 61.805 60.1402 61.8967 60.5069 61.8967H65.6402C65.8847 61.8967 66.1291 61.805 66.3736 61.6217C66.618 61.4384 66.7402 61.1939 66.7402 60.8884C66.7402 60.5828 66.618 60.3384 66.3736 60.155C66.1291 59.9717 65.8847 59.88 65.6402 59.88ZM102.124 70.1467L94.9736 64.6467V63.5467C94.9736 63.18 94.8819 62.905 94.6986 62.7217C94.5152 62.5384 94.2708 62.4467 93.9652 62.4467C93.6597 62.4467 93.3847 62.5384 93.1402 62.7217C92.8958 62.905 92.7736 63.18 92.7736 63.5467V78.03L83.9736 87.0134L82.8736 86.0967C81.2847 84.5078 79.3902 83.53 77.1902 83.1634L79.9402 80.4134C80.1847 80.1689 80.3069 79.8939 80.3069 79.5884C80.3069 79.2828 80.1847 79.0689 79.9402 78.9467L76.4569 75.28L92.2236 68.4967C92.468 68.3745 92.6513 68.13 92.7736 67.7634C92.8958 67.3967 92.7736 67.0911 92.4069 66.8467L87.2736 61.7134C87.7625 60.98 88.0069 60.1856 88.0069 59.33C88.0069 57.9856 87.5486 56.8856 86.6319 56.03C85.7152 55.1745 84.6458 54.7467 83.4236 54.7467C82.568 54.7467 81.7736 54.93 81.0402 55.2967L75.9069 50.1634C75.6625 49.9189 75.3569 49.8273 74.9902 49.8884C74.6236 49.9495 74.3791 50.1634 74.2569 50.53L66.9236 67.58L63.0736 71.43C61.9736 72.6523 61.4236 74.0578 61.4236 75.6467C61.4236 77.2356 61.9736 78.58 63.0736 79.68C64.1736 80.78 65.518 81.33 67.1069 81.33C68.6958 81.33 70.1013 80.78 71.3236 79.68L71.6902 79.3134L75.3569 82.98H74.9902C71.9347 82.98 69.3069 84.0189 67.1069 86.0967L66.0069 87.0134L57.2069 78.03V49.98H69.1236C69.4902 49.98 69.7652 49.8578 69.9486 49.6134C70.1319 49.3689 70.2236 49.0939 70.2236 48.7884C70.2236 48.4828 70.1319 48.2384 69.9486 48.055C69.7652 47.8717 69.4902 47.78 69.1236 47.78H56.1069C55.7402 47.78 55.4652 47.8717 55.2819 48.055C55.0986 48.2384 55.0069 48.5134 55.0069 48.88V64.4634L47.8569 70.1467C47.6125 70.3911 47.4902 70.6967 47.4902 71.0634V97.28C47.4902 98.7467 48.0402 100.03 49.1402 101.13C50.2402 102.23 51.5236 102.78 52.9902 102.78H96.9902C98.4569 102.78 99.7402 102.23 100.84 101.13C101.94 100.03 102.49 98.7467 102.49 97.28V71.0634C102.49 70.6967 102.368 70.3911 102.124 70.1467ZM94.9736 67.3967L99.7402 71.0634L94.9736 75.83V67.3967ZM83.4236 56.9467C84.1569 56.9467 84.7375 57.1606 85.1652 57.5884C85.593 58.0161 85.8069 58.5967 85.8069 59.33C85.8069 59.5745 85.8069 59.8189 85.8069 60.0634L82.6902 56.9467C82.9347 56.9467 83.1791 56.9467 83.4236 56.9467ZM75.5402 52.9134L80.3069 57.4967L89.8402 67.2134L87.6402 68.13L74.6236 55.1134L75.5402 52.9134ZM73.7069 57.3134L85.4402 69.0467L74.8069 73.63L69.1236 67.9467L73.7069 57.3134ZM69.6736 78.2134C68.9402 78.9467 68.0847 79.3134 67.1069 79.3134C66.1291 79.3134 65.2736 78.9467 64.5402 78.2134C63.8069 77.48 63.4402 76.5939 63.4402 75.555C63.4402 74.5161 63.8069 73.6911 64.5402 73.08L67.8402 69.78L72.9736 74.9134L69.6736 78.2134ZM73.1569 77.8467L74.4402 76.38L77.7402 79.68L76.4569 80.9634L73.1569 77.8467ZM55.0069 67.2134V75.83L50.2402 71.0634L55.0069 67.2134ZM51.5236 100.213C51.5236 100.213 51.4625 100.213 51.3402 100.213C50.8513 99.9689 50.4541 99.5717 50.1486 99.0217C49.843 98.4717 49.6902 97.8911 49.6902 97.28V73.63L64.5402 88.48L51.5236 100.213ZM54.0902 100.58L57.7569 97.4634H65.6402C65.8847 97.4634 66.1291 97.3411 66.3736 97.0967C66.618 96.8523 66.7402 96.5773 66.7402 96.2717C66.7402 95.9661 66.618 95.7217 66.3736 95.5384C66.1291 95.355 65.8847 95.2634 65.6402 95.2634H60.1402L68.5736 87.5634C70.4069 85.8523 72.5458 84.9967 74.9902 84.9967C77.4347 84.9967 79.5736 85.8523 81.4069 87.5634L95.8902 100.58H54.0902ZM100.29 97.28C100.29 97.8911 100.137 98.4717 99.8319 99.0217C99.5263 99.5717 99.1291 99.9689 98.6402 100.213L85.4402 88.48L100.29 73.63V97.28ZM94.7902 48.1467C94.5458 47.9023 94.2708 47.78 93.9652 47.78C93.6597 47.78 93.3847 47.9023 93.1402 48.1467L88.9236 52.5467C88.6791 52.6689 88.5569 52.8828 88.5569 53.1884C88.5569 53.4939 88.6486 53.7689 88.8319 54.0134C89.0152 54.2578 89.2597 54.38 89.5652 54.38C89.8708 54.38 90.1458 54.2578 90.3902 54.0134L94.7902 49.6134C94.9125 49.4911 94.9736 49.2773 94.9736 48.9717C94.9736 48.6661 94.9125 48.3911 94.7902 48.1467ZM85.6236 47.78C85.2569 47.78 84.9819 47.8717 84.7986 48.055C84.6152 48.2384 84.5236 48.5134 84.5236 48.88V51.08C84.5236 51.3245 84.6152 51.5384 84.7986 51.7217C84.9819 51.905 85.2263 51.9967 85.5319 51.9967C85.8375 51.9967 86.1125 51.905 86.3569 51.7217C86.6013 51.5384 86.7236 51.3245 86.7236 51.08V48.88C86.7236 48.5134 86.6013 48.2384 86.3569 48.055C86.1125 47.8717 85.868 47.78 85.6236 47.78ZM94.0569 56.03H91.6736C91.4291 56.03 91.2152 56.1523 91.0319 56.3967C90.8486 56.6411 90.7569 56.9161 90.7569 57.2217C90.7569 57.5273 90.8486 57.7717 91.0319 57.955C91.2152 58.1384 91.4291 58.23 91.6736 58.23H94.0569C94.3013 58.23 94.5152 58.1384 94.6986 57.955C94.8819 57.7717 94.9736 57.5273 94.9736 57.2217C94.9736 56.9161 94.8819 56.6411 94.6986 56.3967C94.5152 56.1523 94.3013 56.03 94.0569 56.03ZM70.7736 95.63C70.5291 95.3856 70.2541 95.2634 69.9486 95.2634C69.643 95.2634 69.3986 95.355 69.2152 95.5384C69.0319 95.7217 68.9402 95.9661 68.9402 96.2717C68.9402 96.5773 69.0319 96.8523 69.2152 97.0967C69.3986 97.3411 69.643 97.4634 69.9486 97.4634C70.2541 97.4634 70.5291 97.3411 70.7736 97.0967C71.018 96.8523 71.1402 96.5773 71.1402 96.2717C71.1402 95.9661 71.018 95.7523 70.7736 95.63Z" fill="#7F7E97"/>
    </g>
    <g clip-path="url(#clip1_6512_1886)">
    <g clip-path="url(#clip2_6512_1886)">
    <path d="M123 40.7034C122.494 41.0803 122.241 41.4572 121.987 41.5829C120.722 42.0855 119.456 42.588 118.19 43.0906C116.291 43.7188 115.152 44.9753 114.899 46.9856C114.646 48.619 114.392 50.2524 114.013 51.8858C113.886 52.3883 113.506 53.1422 113.127 53.2679C112.367 53.3935 112.367 52.514 112.24 52.0114C111.734 50.5037 111.228 48.8703 110.848 47.3625C110.215 45.2266 108.823 44.0958 106.544 44.0958C105.658 44.0958 104.899 43.9701 104.013 43.8445C103.506 43.8445 103.253 43.5932 103 43.3419C103.253 43.0906 103.38 42.7137 103.633 42.588C104.899 42.0855 106.291 41.5829 107.557 41.2059C108.823 40.829 109.709 39.9495 109.962 38.693C110.468 36.6828 110.848 34.6724 111.354 32.7878C111.608 32.1595 111.354 31.28 112.24 31.28C113.127 31.28 113 32.0339 113.127 32.5365C113.506 34.2955 113.886 35.9289 114.392 37.6879C115.025 39.9495 115.532 40.3264 117.937 40.3264C119.203 40.3264 120.595 40.2008 121.861 40.2008C121.987 40.2008 122.367 40.4521 123 40.7034Z" fill="#CECCFD"/>
    <path d="M103 31.9917C102.747 32.1802 102.62 32.3686 102.494 32.4315C101.861 32.6828 101.228 32.934 100.595 33.1853C99.6456 33.4994 99.0759 34.1277 98.9494 35.1328C98.8228 35.9495 98.6962 36.7662 98.5063 37.5829C98.443 37.8342 98.2532 38.2111 98.0633 38.2739C97.6835 38.3368 97.6835 37.897 97.6203 37.6457C97.3671 36.8919 97.1139 36.0752 96.9241 35.3213C96.6076 34.2533 95.9114 33.6879 94.7722 33.6879C94.3291 33.6879 93.9494 33.6251 93.5063 33.5623C93.2532 33.5623 93.1266 33.4366 93 33.311C93.1266 33.1853 93.1899 32.9969 93.3165 32.934C93.9494 32.6828 94.6456 32.4315 95.2785 32.243C95.9114 32.0545 96.3544 31.6148 96.481 30.9865C96.7342 29.9814 96.924 28.9762 97.1772 28.0339C97.3038 27.7198 97.1772 27.28 97.6203 27.28C98.0633 27.28 98 27.657 98.0633 27.9083C98.2532 28.7878 98.443 29.6045 98.6962 30.484C99.0127 31.6148 99.2658 31.8032 100.468 31.8032C101.101 31.8032 101.797 31.7404 102.43 31.7404C102.494 31.7404 102.684 31.8661 103 31.9917Z" fill="#CECCFD"/>
    </g>
    </g>
    <defs>
    <linearGradient id="paint0_linear_6512_1886" x1="75" y1="0.280029" x2="75" y2="150.28" gradientUnits="userSpaceOnUse">
    <stop stop-color="white"/>
    <stop offset="1" stop-color="#F1F1FA"/>
    </linearGradient>
    <clipPath id="clip0_6512_1886">
    <rect width="55.02" height="55" fill="white" transform="matrix(1 0 0 -1 47.4805 102.78)"/>
    </clipPath>
    <clipPath id="clip1_6512_1886">
    <rect width="30" height="26" fill="white" transform="translate(93 27.28)"/>
    </clipPath>
    <clipPath id="clip2_6512_1886">
    <rect width="30" height="26" fill="white" transform="translate(93 27.28)"/>
    </clipPath>
    </defs>
    </svg>
    