<svg width="110" height="151" viewBox="0 0 150 151" fill="none" xmlns="http://www.w3.org/2000/svg">
    <rect x="0.5" y="0.780029" width="149" height="149" rx="74.5" fill="url(#paint0_linear_6512_1864)"/>
    <rect x="0.5" y="0.780029" width="149" height="149" rx="74.5" stroke="#C9C9DD"/>
    <g clip-path="url(#clip0_6512_1864)">
    <path d="M102.49 75.28C102.49 70.2689 101.268 65.655 98.8236 61.4384C96.3791 57.2217 93.0486 53.8911 88.8319 51.4467C84.6152 49.0023 80.0625 47.78 75.1736 47.78C70.2847 47.78 65.7013 48.9411 61.4236 51.2634H58.1236V47.78H52.8069V58.9634C49.2625 63.8522 47.4902 69.2911 47.4902 75.28C47.4902 80.2911 48.7125 84.905 51.1569 89.1217C53.6013 93.3384 56.9319 96.6689 61.1486 99.1134C65.3652 101.558 69.9791 102.78 74.9902 102.78C78.4125 102.78 81.6513 102.169 84.7069 100.947C86.6625 102.169 88.7402 102.78 90.9402 102.78C93.7513 102.78 96.2569 101.863 98.4569 100.03L97.3569 98.5634C95.5236 100.152 93.3847 100.947 90.9402 100.947C88.2513 100.947 85.9597 99.9995 84.0652 98.105C82.1708 96.2106 81.2236 93.9189 81.2236 91.23C81.2236 88.5411 82.1708 86.2495 84.0652 84.355C85.9597 82.4606 88.2513 81.5134 90.9402 81.5134C93.6291 81.5134 95.9208 82.4606 97.8152 84.355C99.7097 86.2495 100.657 88.5411 100.657 91.23C100.657 93.5523 99.9847 95.5689 98.6402 97.28L99.9236 98.5634C101.635 96.3634 102.49 93.9189 102.49 91.23C102.49 89.03 101.879 86.9523 100.657 84.9967C101.879 81.9411 102.49 78.7023 102.49 75.28ZM61.6069 56.58H63.4402V69.0467H61.6069V56.58ZM58.1236 53.0967H59.9569V69.0467H58.1236V53.0967ZM54.6402 49.6134H56.2902V69.0467H54.6402V49.6134ZM74.0736 100.947C69.6736 100.824 65.6097 99.6328 61.8819 97.3717C58.1541 95.1106 55.1597 92.1161 52.8986 88.3884C50.6375 84.6606 49.4458 80.5967 49.3236 76.1967H74.0736V100.947ZM74.0736 74.3634H49.3236C49.4458 70.0856 50.6069 66.0522 52.8069 62.2634V70.88H72.2402V61.8967H68.7569V58.4134H65.2736V54.93H61.6069V53.28C65.518 50.9578 69.6736 49.7356 74.0736 49.6134V74.3634ZM65.2736 69.0467V60.2467H66.9236V69.0467H65.2736ZM68.7569 69.0467V63.73H70.5902V69.0467H68.7569ZM100.657 74.3634H93.1402L99.5569 67.9467C100.29 70.0245 100.657 72.1634 100.657 74.3634ZM96.2569 60.7967L86.3569 70.6967L87.6402 71.98L97.1736 62.2634C97.9069 63.4856 98.518 64.7078 99.0069 65.93L90.5736 74.3634H85.0736L86.1736 73.2634L85.0736 71.98L82.6902 74.3634H77.1902L93.8736 57.68C94.7291 58.6578 95.5236 59.6967 96.2569 60.7967ZM75.9069 49.6134C78.1069 49.6134 80.2458 49.98 82.3236 50.7134L75.9069 57.13V49.6134ZM75.9069 67.58L86.7236 56.9467L85.4402 55.6634L75.9069 65.1967V59.6967L84.3402 51.2634C85.5625 51.7523 86.7847 52.3634 88.0069 53.0967L86.5402 54.5634L87.8236 55.8467L89.4736 54.0134C90.5736 54.7467 91.6125 55.5411 92.5902 56.3967L75.9069 73.08V67.58ZM90.9402 79.68C88.8625 79.68 86.9375 80.1995 85.1652 81.2384C83.393 82.2773 81.9875 83.6828 80.9486 85.455C79.9097 87.2273 79.3902 89.1523 79.3902 91.23C79.3902 92.8189 79.7263 94.3467 80.3986 95.8134C81.0708 97.28 81.9569 98.5634 83.0569 99.6634C80.7347 100.519 78.3513 100.947 75.9069 100.947V76.1967H100.657C100.657 78.6411 100.229 81.0245 99.3736 83.3467C98.2736 82.2467 96.9902 81.3606 95.5236 80.6884C94.0569 80.0161 92.5291 79.68 90.9402 79.68ZM58.4902 90.68L69.1236 80.0467L70.2236 81.1467L59.5902 91.9634L58.4902 90.68ZM67.8402 86.83C67.1069 86.83 66.4958 87.0745 66.0069 87.5634C65.518 88.0523 65.2736 88.6634 65.2736 89.3967C65.2736 90.13 65.518 90.7717 66.0069 91.3217C66.4958 91.8717 67.1069 92.1467 67.8402 92.1467C68.5736 92.1467 69.2152 91.8717 69.7652 91.3217C70.3152 90.7717 70.5902 90.13 70.5902 89.3967C70.5902 88.6634 70.3152 88.0523 69.7652 87.5634C69.2152 87.0745 68.5736 86.83 67.8402 86.83ZM67.8402 90.3134C67.5958 90.3134 67.3819 90.2217 67.1986 90.0384C67.0152 89.855 66.9236 89.6411 66.9236 89.3967C66.9236 89.1523 67.0152 88.9689 67.1986 88.8467C67.3819 88.7245 67.5958 88.6634 67.8402 88.6634C68.0847 88.6634 68.2986 88.7245 68.4819 88.8467C68.6652 88.9689 68.7569 89.1523 68.7569 89.3967C68.7569 89.6411 68.6652 89.855 68.4819 90.0384C68.2986 90.2217 68.0847 90.3134 67.8402 90.3134ZM60.8736 79.68C60.1402 79.68 59.4986 79.955 58.9486 80.505C58.3986 81.055 58.1236 81.6967 58.1236 82.43C58.1236 83.1634 58.3986 83.7745 58.9486 84.2634C59.4986 84.7523 60.1402 84.9967 60.8736 84.9967C61.6069 84.9967 62.218 84.7523 62.7069 84.2634C63.1958 83.7745 63.4402 83.1634 63.4402 82.43C63.4402 81.6967 63.1958 81.055 62.7069 80.505C62.218 79.955 61.6069 79.68 60.8736 79.68ZM60.8736 83.3467C60.6291 83.3467 60.4152 83.255 60.2319 83.0717C60.0486 82.8884 59.9569 82.6745 59.9569 82.43C59.9569 82.1856 60.0486 81.9717 60.2319 81.7884C60.4152 81.605 60.6291 81.5134 60.8736 81.5134C61.118 81.5134 61.3013 81.605 61.4236 81.7884C61.5458 81.9717 61.6069 82.1856 61.6069 82.43C61.6069 82.6745 61.5458 82.8884 61.4236 83.0717C61.3013 83.255 61.118 83.3467 60.8736 83.3467ZM90.9402 90.3134C90.4513 90.3134 90.0236 90.1606 89.6569 89.855C89.2902 89.5495 89.1069 89.1523 89.1069 88.6634C89.1069 88.1745 89.2902 87.7467 89.6569 87.38C90.0236 87.0134 90.4513 86.83 90.9402 86.83C91.4291 86.83 91.8569 87.0134 92.2236 87.38C92.5902 87.7467 92.7736 88.1745 92.7736 88.6634H94.4236C94.4236 87.8078 94.1791 87.0745 93.6902 86.4634C93.2013 85.8523 92.5902 85.4245 91.8569 85.18V83.3467H90.0236V85.18C89.2902 85.4245 88.6791 85.8523 88.1902 86.4634C87.7013 87.0745 87.4569 87.8384 87.4569 88.755C87.4569 89.6717 87.793 90.4661 88.4652 91.1384C89.1375 91.8106 89.9625 92.1467 90.9402 92.1467C91.4291 92.1467 91.8569 92.33 92.2236 92.6967C92.5902 93.0634 92.7736 93.4911 92.7736 93.98C92.7736 94.4689 92.5902 94.8661 92.2236 95.1717C91.8569 95.4773 91.4291 95.63 90.9402 95.63C90.4513 95.63 90.0236 95.4773 89.6569 95.1717C89.2902 94.8661 89.1069 94.4689 89.1069 93.98H87.4569C87.4569 94.7134 87.7013 95.4161 88.1902 96.0884C88.6791 96.7606 89.2902 97.1578 90.0236 97.28V99.2967H91.8569V97.28C92.5902 97.1578 93.2013 96.7606 93.6902 96.0884C94.1791 95.4161 94.4236 94.6523 94.4236 93.7967C94.4236 92.9411 94.0875 92.1467 93.4152 91.4134C92.743 90.68 91.918 90.3134 90.9402 90.3134ZM97.1736 90.3134H99.0069V92.1467H97.1736V90.3134ZM83.0569 90.3134H84.7069V92.1467H83.0569V90.3134Z" fill="#7F7E97"/>
    </g>
    <g clip-path="url(#clip1_6512_1864)">
    <g clip-path="url(#clip2_6512_1864)">
    <path d="M123 40.7034C122.494 41.0803 122.241 41.4572 121.987 41.5829C120.722 42.0855 119.456 42.588 118.19 43.0906C116.291 43.7188 115.152 44.9753 114.899 46.9856C114.646 48.619 114.392 50.2524 114.013 51.8858C113.886 52.3883 113.506 53.1422 113.127 53.2679C112.367 53.3935 112.367 52.514 112.24 52.0114C111.734 50.5037 111.228 48.8703 110.848 47.3625C110.215 45.2266 108.823 44.0958 106.544 44.0958C105.658 44.0958 104.899 43.9701 104.013 43.8445C103.506 43.8445 103.253 43.5932 103 43.3419C103.253 43.0906 103.38 42.7137 103.633 42.588C104.899 42.0855 106.291 41.5829 107.557 41.2059C108.823 40.829 109.709 39.9495 109.962 38.693C110.468 36.6828 110.848 34.6724 111.354 32.7878C111.608 32.1595 111.354 31.28 112.24 31.28C113.127 31.28 113 32.0339 113.127 32.5365C113.506 34.2955 113.886 35.9289 114.392 37.6879C115.025 39.9495 115.532 40.3264 117.937 40.3264C119.203 40.3264 120.595 40.2008 121.861 40.2008C121.987 40.2008 122.367 40.4521 123 40.7034Z" fill="#CECCFD"/>
    <path d="M103 31.9917C102.747 32.1802 102.62 32.3686 102.494 32.4315C101.861 32.6828 101.228 32.934 100.595 33.1853C99.6456 33.4994 99.0759 34.1277 98.9494 35.1328C98.8228 35.9495 98.6962 36.7662 98.5063 37.5829C98.443 37.8342 98.2532 38.2111 98.0633 38.2739C97.6835 38.3368 97.6835 37.897 97.6203 37.6457C97.3671 36.8919 97.1139 36.0752 96.9241 35.3213C96.6076 34.2533 95.9114 33.6879 94.7722 33.6879C94.3291 33.6879 93.9494 33.6251 93.5063 33.5623C93.2532 33.5623 93.1266 33.4366 93 33.311C93.1266 33.1853 93.1899 32.9969 93.3165 32.934C93.9494 32.6828 94.6456 32.4315 95.2785 32.243C95.9114 32.0545 96.3544 31.6148 96.481 30.9865C96.7342 29.9814 96.924 28.9762 97.1772 28.0339C97.3038 27.7198 97.1772 27.28 97.6203 27.28C98.0633 27.28 98 27.657 98.0633 27.9083C98.2532 28.7878 98.443 29.6045 98.6962 30.484C99.0127 31.6148 99.2658 31.8032 100.468 31.8032C101.101 31.8032 101.797 31.7404 102.43 31.7404C102.494 31.7404 102.684 31.8661 103 31.9917Z" fill="#CECCFD"/>
    </g>
    </g>
    <defs>
    <linearGradient id="paint0_linear_6512_1864" x1="75" y1="0.280029" x2="75" y2="150.28" gradientUnits="userSpaceOnUse">
    <stop stop-color="white"/>
    <stop offset="1" stop-color="#F1F1FA"/>
    </linearGradient>
    <clipPath id="clip0_6512_1864">
    <rect width="55.02" height="55" fill="white" transform="matrix(1 0 0 -1 47.4805 102.78)"/>
    </clipPath>
    <clipPath id="clip1_6512_1864">
    <rect width="30" height="26" fill="white" transform="translate(93 27.28)"/>
    </clipPath>
    <clipPath id="clip2_6512_1864">
    <rect width="30" height="26" fill="white" transform="translate(93 27.28)"/>
    </clipPath>
    </defs>
    </svg>
    