<svg width="22" height="28" viewBox="0 0 22 28" fill="none" xmlns="http://www.w3.org/2000/svg">
    <g clip-path="url(#clip0_6512_2013)">
    <path d="M0.191407 26.3132V1.69421C0.191265 1.40603 0.24628 1.12259 0.35125 0.870694C0.456219 0.6188 0.607663 0.406797 0.791246 0.254768C0.974831 0.10274 1.18448 0.0157243 1.40034 0.00193866C1.61619 -0.011847 1.83112 0.0480663 2.02476 0.176003L20.4866 12.3292C20.6983 12.4694 20.8764 12.6856 21.0009 12.9535C21.1255 13.2214 21.1914 13.5304 21.1914 13.8456C21.1914 14.1608 21.1255 14.4697 21.0009 14.7376C20.8764 15.0055 20.6983 15.2217 20.4866 15.3619L2.02476 27.824C1.83154 27.9517 1.61713 28.0116 1.40174 27.9981C1.18634 27.9847 0.977046 27.8983 0.793615 27.7472C0.610182 27.596 0.458638 27.385 0.353276 27.1342C0.247915 26.8833 0.192213 26.6008 0.191407 26.3132Z" fill="#E11B24"/>
    </g>
    <defs>
    <clipPath id="clip0_6512_2013">
    <rect width="22" height="28" fill="white"/>
    </clipPath>
    </defs>
    </svg>
    