<svg width="103" height="79" viewBox="0 0 103 79" fill="none" xmlns="http://www.w3.org/2000/svg">
    <g clip-path="url(#clip0_6512_1987)">
    <g clip-path="url(#clip1_6512_1987)">
    <g clip-path="url(#clip2_6512_1987)">
    <path d="M3.42176 13.8365C2.50383 15.211 2.59562 16.7689 2.50383 18.2351C1.67769 25.8411 1.03514 33.5388 0.208994 41.2364C0.1172 42.5194 0.392577 43.7107 0.851544 44.902C1.40231 46.3682 2.13666 47.7428 2.68742 49.209C3.05459 50.0338 3.42176 50.5836 4.3397 50.9501C7.00171 52.0498 9.57192 53.3327 12.1422 54.5241C12.5093 54.7073 12.8765 54.799 13.2437 54.9822C14.0698 57.823 14.9877 60.6638 15.6303 63.5963C16.64 67.8117 18.2005 71.7521 19.6692 75.8759C19.8528 76.3341 19.9446 76.7924 20.0364 77.2505C20.3118 77.9837 20.9543 78.2585 21.5969 77.7086C22.0558 77.2505 22.423 76.7006 22.882 76.1508C25.9112 72.1187 28.9403 67.9949 31.9695 63.7796C33.6218 64.0545 35.3659 64.3294 37.1099 64.6043C44.8206 65.8873 52.5312 67.1702 60.3337 68.5448C67.0346 69.6444 73.6437 70.7441 80.3446 71.8438C85.7604 72.7603 91.268 73.6765 96.6838 74.5929C98.1525 74.868 98.4279 74.5929 98.5197 73.1267C99.4376 65.704 100.264 58.1896 101.09 50.7669C101.457 47.4679 101.824 44.2605 102.191 40.9615C102.191 40.32 102.191 39.6786 101.916 39.0371C101.09 37.1127 100.172 35.1883 99.3458 33.2639C98.7033 31.9809 97.7853 31.2478 96.2249 30.9729C84.6589 28.8652 73.0929 26.7575 61.6188 24.6498C51.1543 22.7254 40.6899 20.801 30.1336 18.8766C21.964 17.4104 13.8862 15.8525 5.7166 14.3863C4.98225 14.2947 4.24791 14.0197 3.42176 13.8365ZM93.6546 64.9709C93.2875 64.9709 93.1957 64.971 93.0121 64.8792C83.5574 62.8633 74.1027 60.7555 64.6479 58.7394C52.9902 56.2652 41.3324 53.7909 29.6747 51.3167C28.4814 51.0418 27.2881 50.8585 26.0947 50.6752C24.9932 50.4919 24.5343 50.9501 24.8096 51.9582C24.9932 52.508 24.8096 52.9662 24.626 53.4244C22.7902 57.823 21.0461 62.2217 19.2102 66.5287C19.1184 66.8036 18.9349 67.0786 18.6595 67.5367C18.2923 66.0705 17.9251 64.7876 17.558 63.5963C16.0893 58.4645 14.6206 53.3327 13.2437 48.201C12.9683 47.3762 12.6929 46.8264 11.775 46.4598C9.66371 45.7267 7.55246 44.8103 5.44122 44.0772C4.3397 43.619 3.23818 43.1608 2.04486 42.7027C2.871 33.8137 3.60535 24.9247 4.43149 15.9441C35.4577 21.5341 66.3002 27.0324 97.3264 32.6224C96.0413 43.4358 94.848 54.1575 93.6546 64.9709ZM97.2346 70.4692C97.1428 70.4692 97.051 70.4692 96.9592 70.5608C96.4084 69.3695 95.8577 68.1782 95.3987 66.9869C95.3069 66.8036 95.3987 66.5287 95.3987 66.3454C95.6741 64.3294 95.9495 62.3133 96.1331 60.3889C96.8674 53.8826 97.51 47.3762 98.2443 40.7782C98.4279 39.4037 98.6115 38.0291 98.7033 36.5629C100.447 38.8538 100.815 40.2284 100.539 42.7943C99.9884 47.2846 99.5294 51.7749 98.9787 56.1735C98.3361 60.9388 97.7854 65.704 97.2346 70.4692ZM32.7957 54.5241C32.8875 54.4324 32.9792 54.3408 32.9792 54.2491C34.6315 54.6157 36.2838 54.9822 37.9361 55.2572C38.6704 55.3488 39.0376 55.807 39.4048 56.3568C40.5063 58.2812 41.6078 60.114 42.7093 61.9468C42.8929 62.3133 43.1683 62.7715 43.4437 63.3214C41.4242 62.9548 39.6802 62.6799 37.8443 62.405C37.2017 62.3133 36.9264 61.9468 36.5592 61.397C35.6413 59.6558 34.6315 57.823 33.6218 56.0819C33.3464 55.6237 33.071 55.0739 32.7957 54.5241ZM56.1112 65.2458C56.0194 65.3374 55.9276 65.4291 55.9276 65.5207C54.1835 65.2458 52.4394 64.8792 50.6954 64.6043C50.0528 64.5127 49.8692 64.0545 49.6856 63.5963C48.8595 61.7635 48.0334 60.0224 47.299 58.1896C47.2072 57.9147 47.1154 57.6398 46.9318 57.1816C48.6759 57.5481 50.3282 57.823 51.8887 58.1896C52.1641 58.2812 52.5312 58.4645 52.7148 58.6478C53.8163 60.8471 55.0096 63.0466 56.1112 65.2458ZM2.68742 44.9936C3.23818 45.1769 3.51356 45.1769 3.78894 45.2685C5.62481 45.91 7.46067 46.6431 9.29654 47.3762C11.316 48.1093 11.316 48.1093 11.8668 50.217C12.1422 51.0418 12.5093 51.9582 12.4175 52.9662C9.7555 51.6832 7.27709 50.4003 4.70687 49.209C4.52329 49.1174 4.2479 48.9341 4.15611 48.7508C3.69714 47.6511 3.23818 46.4598 2.68742 44.9936ZM60.5172 60.0224C62.0777 60.2973 63.4546 60.6638 64.8315 60.8471C65.5659 60.9388 66.0248 61.397 66.392 62.0384C66.9428 63.2297 67.5853 64.421 68.2279 65.5207C68.5951 66.1622 68.9622 66.8953 69.513 67.8117C67.9525 67.5367 66.6674 67.2618 65.3823 67.0786C64.5562 66.9869 64.0972 66.5287 63.73 65.7956C62.9957 64.3294 62.1695 62.9548 61.3434 61.4886C61.068 61.122 60.7926 60.7555 60.5172 60.0224ZM54.2753 58.7394C55.8358 59.0144 57.0291 59.2893 58.3142 59.5642C58.5896 59.6558 58.865 60.0224 59.0486 60.2973C60.0583 62.0384 60.9762 63.6879 61.8941 65.4291C62.0777 65.704 62.1695 66.0705 62.3531 66.6204C60.8844 66.3454 59.6911 66.1622 58.406 65.8873C58.1306 65.7956 57.7634 65.5207 57.5799 65.2458C56.5701 63.2298 55.5604 61.122 54.2753 58.7394ZM40.7817 55.8986C42.2504 56.1735 43.5355 56.4485 44.7288 56.7234C44.9124 56.7234 45.096 56.9983 45.1878 57.1816C46.2893 59.4725 47.3908 61.7635 48.4923 64.1461C47.3908 63.9628 46.5647 63.9628 45.6467 63.6879C45.2796 63.5963 44.9124 63.2297 44.7288 62.9548C44.0862 62.0384 43.6273 61.0304 43.0765 60.0224C42.434 58.8311 41.6996 57.5481 40.7817 55.8986ZM27.747 53.1495C28.4814 53.3328 29.0321 53.4244 29.4911 53.516C30.409 53.6077 30.868 54.0659 31.327 54.799C32.0613 56.1735 32.8875 57.5481 33.7136 58.9227C34.2644 59.8391 34.7233 60.7555 35.3659 62.0384C33.989 61.7635 32.8875 61.5802 31.8777 61.3053C31.6941 61.2137 31.4188 60.9388 31.327 60.7555C30.1337 58.2812 29.0321 55.8986 27.747 53.1495ZM75.296 68.9113C73.8273 68.6364 72.7258 68.4531 71.6243 68.2699C71.3489 68.1782 70.8899 67.9033 70.7981 67.6284C69.6966 65.704 68.6869 63.6879 67.4017 61.4886C68.9622 61.7635 70.1555 62.0384 71.3489 62.3133C71.5324 62.3133 71.716 62.5883 71.8078 62.7715C73.0011 64.696 74.1027 66.6204 75.296 68.9113ZM86.0358 70.8357C84.6589 70.5608 83.5574 70.3775 82.4559 70.1943C81.7215 70.1026 81.3543 69.8277 81.1708 69.1862C80.62 67.72 79.9774 66.3455 79.3349 64.9709C79.2431 64.696 79.1513 64.421 79.0595 63.9628C80.3446 64.2378 81.5379 64.421 82.6395 64.696C82.9148 64.7876 83.282 65.0625 83.4656 65.3374C84.2917 66.9869 85.1179 68.728 86.0358 70.8357ZM26.2783 54.2491C27.6552 57.0899 29.0321 59.7475 30.2254 62.405C30.3172 62.5883 30.2254 62.9548 30.1336 63.1381C29.8583 63.5963 29.4911 63.9628 29.0321 64.421C27.747 62.405 26.4619 60.5722 25.2686 58.6478C25.085 58.2812 24.9932 57.7314 25.085 57.3649C25.3604 56.4485 25.8194 55.5321 26.2783 54.2491ZM73.6437 62.8632C74.1027 62.9548 74.378 62.9548 74.6534 62.9548C76.5811 63.0465 77.6826 63.8712 78.2334 65.704C78.6005 66.9869 79.2431 68.1782 79.8857 69.6444C79.0595 69.5528 78.5088 69.4612 77.958 69.3695C77.1319 69.3695 76.6729 68.9113 76.3057 68.0866C75.8467 67.0786 75.296 66.1623 74.837 65.2458C74.5616 64.6044 74.1945 63.7796 73.6437 62.8632ZM95.7659 72.3936C94.6644 72.2103 93.8382 72.027 93.1039 71.9354C92.4613 71.8438 92.186 71.4772 91.9106 70.9274C91.4516 69.6444 90.9008 68.4532 90.3501 67.1702C90.2583 66.8954 90.1665 66.6204 90.0747 66.1622C91.0844 66.3454 92.0024 66.5287 92.8285 66.712C93.1039 66.8036 93.3793 66.8954 93.4711 67.1702C94.2054 68.8198 94.9398 70.4692 95.7659 72.3936ZM24.4425 59.9307C25.7276 61.8552 27.0127 63.7796 28.2978 65.704C27.747 66.4371 27.2881 67.0786 26.7373 67.72C26.003 66.712 25.544 65.704 24.7178 64.9709C23.0656 63.5046 23.1574 61.8551 24.1671 60.114C24.1671 60.114 24.1671 60.114 24.4425 59.9307ZM84.9343 65.1541C86.1276 65.3374 86.9537 65.5207 87.7799 65.704C88.0553 65.7956 88.3306 65.9789 88.4224 66.2538C89.1568 67.9949 89.8911 69.6444 90.7173 71.5689C89.7993 71.3856 88.9732 71.3856 88.2388 71.2023C87.9635 71.1107 87.5963 70.9274 87.5045 70.6525C86.6784 68.9114 85.8522 67.1702 84.9343 65.1541ZM23.8917 71.2939C23.1574 70.1026 22.423 68.9113 21.6887 67.72C21.5969 67.5367 21.5051 67.2618 21.5969 67.0786C21.8722 66.2538 22.1476 65.4291 22.6066 64.421C23.7999 66.0705 24.8096 67.5367 25.8194 69.003C25.2686 69.7361 24.8096 70.3775 24.3507 71.019C24.1671 71.019 24.0753 71.1107 23.8917 71.2939ZM20.7707 69.1862C21.1379 69.8277 21.4133 70.2859 21.6887 70.7441C23.0656 72.9434 23.0656 72.9434 21.2297 74.8678C21.2297 74.8678 21.1379 74.868 20.9543 74.9595C20.6789 74.1348 20.4953 73.31 20.1282 72.6685C19.6692 71.2939 20.0364 70.3775 20.7707 69.1862Z" fill="#161439"/>
    <path d="M54.916 12.8284C54.916 13.5616 55.1913 14.1114 55.8339 14.203C56.4764 14.2947 56.9354 14.0197 57.119 13.195C57.3944 12.2786 57.578 11.3622 57.6698 10.4458C57.9451 7.5134 58.2205 4.48932 58.4959 1.55688C58.4959 1.28197 58.5877 0.915411 58.4041 0.732133C58.1287 0.365578 57.7616 -0.000976562 57.4862 -0.000976562C57.2108 -0.000976562 56.7518 0.365578 56.5682 0.640494C56.2929 0.823772 56.2929 1.28197 56.2929 1.55688C55.8339 5.22243 55.3749 8.88798 54.916 12.5535C54.916 12.6452 54.916 12.7368 54.916 12.8284Z" fill="#161439"/>
    <path d="M38.7608 5.22233C39.3116 7.0551 39.9541 9.16279 40.5967 11.2705C40.6885 11.5454 40.8721 11.7287 41.0557 11.912C41.4228 12.2785 41.9736 12.3702 42.3408 12.0036C42.6161 11.7287 42.7079 11.2705 42.6161 10.9039C42.0654 8.97951 41.5146 7.0551 40.9639 5.13069C40.9639 4.85577 40.8721 4.58085 40.6885 4.30594C40.4131 3.75611 40.0459 3.57283 39.4034 3.66447C38.8526 3.93938 38.669 4.39758 38.7608 5.22233Z" fill="#161439"/>
    <path d="M46.1045 6.23054C46.3799 8.15495 46.5635 10.0794 46.8388 11.9121C46.8388 12.0954 46.9306 12.462 47.0224 12.5536C47.2978 12.7369 47.7568 13.0118 48.1239 13.0118C48.5829 13.0118 48.8583 12.6453 48.8583 12.0954C48.8583 11.3623 48.7665 10.6292 48.6747 9.89608C48.4911 8.5215 48.3993 7.14692 48.2157 5.6807C48.2157 5.31415 48.2157 4.94759 48.0321 4.76432C47.7568 4.4894 47.3896 4.21448 47.0224 4.21448C46.747 4.21448 46.3799 4.58104 46.2881 4.94759C46.0127 5.31415 46.1045 5.77234 46.1045 6.23054Z" fill="#161439"/>
    <path d="M65.9316 6.87195C65.5644 7.2385 65.1972 7.42178 65.0136 7.6967C64.2793 9.07128 63.5449 10.3542 62.8106 11.7288C62.7188 12.0037 62.5352 12.2786 62.5352 12.5535C62.627 12.9201 62.9024 13.3783 63.1778 13.4699C63.4531 13.5616 64.0039 13.4699 64.1875 13.195C65.1054 11.7288 65.9316 10.1709 66.7577 8.61308C66.8495 8.42981 66.9413 7.97161 66.7577 7.78833C66.5741 7.51342 66.2987 7.33014 65.9316 6.87195Z" fill="#161439"/>
    <path d="M71.8983 10.5375C71.7147 10.6291 71.4394 10.8124 71.2558 10.9957C70.3378 12.0953 69.4199 13.1034 68.502 14.203C68.2266 14.5696 68.1348 15.0278 68.502 15.3027C68.7773 15.5776 69.2363 15.5776 69.6035 15.6692C69.7871 15.6692 70.0625 15.486 70.1542 15.3027C71.0722 14.2947 71.9901 13.2866 72.7245 12.187C73.2752 11.4539 72.8163 10.5375 71.8983 10.5375Z" fill="#161439"/>
    <path d="M93.4704 36.5629C93.4704 36.4713 93.4704 36.1964 93.3786 36.0131C93.2868 35.8298 93.1032 35.5549 92.9196 35.5549C92.6442 35.5549 92.2771 35.6465 92.1853 35.8298C92.0017 36.1047 91.9099 36.5629 91.8181 36.8378C91.1755 42.0612 90.4412 47.3763 89.7986 52.5997C89.7068 53.2412 89.615 53.8826 89.5233 54.5241C89.4315 55.3489 89.7068 55.7154 90.2576 55.807C90.9001 55.807 91.1755 55.4405 91.2673 54.799C91.4509 53.6077 91.5427 52.5081 91.7263 51.3168C92.277 46.6432 92.8278 41.878 93.2868 37.2044C93.3786 37.0211 93.3786 36.8378 93.4704 36.5629Z" fill="#161439"/>
    <path d="M8.19499 24.2833C8.19499 23.5502 8.28678 22.8171 8.28678 21.9924C8.28678 21.6258 8.28678 21.3509 8.28678 20.9843C8.19499 20.5261 8.1032 19.9763 7.46065 19.9763C6.90989 19.9763 6.90988 20.5261 6.81809 20.8927C6.7263 22.7255 6.6345 24.5582 6.45091 26.391C6.17553 29.9649 5.80836 33.5388 5.44119 37.2044C5.44119 37.5709 5.3494 37.9375 5.44119 38.3041C5.53298 38.579 5.80837 38.8539 6.08375 38.9455C6.35913 38.9455 6.7263 38.7622 6.81809 38.4873C7.00168 38.2124 7.00168 37.8459 7.00168 37.5709C7.36885 33.3556 7.73603 29.0485 8.01141 24.8332C8.19499 24.6499 8.19499 24.4666 8.19499 24.2833Z" fill="#161439"/>
    <path d="M50.8788 27.1241C51.246 26.4827 51.6132 26.1161 51.6132 25.7495C51.6132 25.2914 51.246 25.0164 50.787 25.0164C50.3281 25.0164 49.9609 25.383 49.9609 25.8412C50.0527 26.2077 50.4199 26.4827 50.8788 27.1241Z" fill="#161439"/>
    <path d="M64.3711 28.4069C64.4629 29.14 64.83 29.415 65.3808 29.415C65.8398 29.3233 66.1151 29.0484 66.1151 28.5902C66.1151 28.132 65.5644 27.6738 65.1972 27.8571C64.7382 27.8571 64.5547 28.2236 64.3711 28.4069Z" fill="#161439"/>
    <path d="M77.4062 31.1561C77.9571 31.5226 78.3243 31.7976 78.5996 31.7976C79.0586 31.8892 79.4258 31.5226 79.4258 31.0645C79.4258 30.6063 79.0586 30.2397 78.5996 30.3313C78.2325 30.423 77.9571 30.7895 77.4062 31.1561Z" fill="#161439"/>
    <path d="M83.1895 31.6145C83.6485 31.981 83.8321 32.3476 84.1074 32.4392C84.4746 32.5308 84.8417 32.3476 84.9335 31.8894C85.0253 31.4312 84.75 30.973 84.291 31.0646C83.9239 31.0646 83.6485 31.3395 83.1895 31.6145Z" fill="#161439"/>
    <path d="M87.7793 32.8057C88.4218 33.1722 88.6972 33.4472 88.9726 33.4472C89.4316 33.5388 89.7987 33.0806 89.7069 32.714C89.6151 32.4391 89.248 32.0726 88.9726 32.0726C88.6972 32.0726 88.4218 32.4391 87.7793 32.8057Z" fill="#161439"/>
    <path d="M23.707 21.6258C24.166 21.9923 24.3496 22.2672 24.7167 22.3589C25.0839 22.4505 25.6347 21.9923 25.4511 21.6258C25.3593 21.3509 24.9921 20.9843 24.7167 20.9843C24.4414 20.9843 24.166 21.3509 23.707 21.6258Z" fill="#161439"/>
    <path d="M14.5274 19.335C14.252 19.8848 13.9766 20.1597 13.9766 20.4346C14.0684 20.7096 14.4356 20.8928 14.711 21.0761C14.8945 20.8012 15.3535 20.5263 15.3535 20.2514C15.3535 19.9765 14.8945 19.7015 14.5274 19.335Z" fill="#161439"/>
    <path d="M43.7188 24.6498C44.1777 24.9248 44.453 25.1997 44.7284 25.1997C44.912 25.1997 45.2791 24.8331 45.2791 24.5582C45.3709 24.1916 44.8202 23.7334 44.453 23.8251C44.2694 23.9167 44.0859 24.2833 43.7188 24.6498Z" fill="#161439"/>
    <path d="M71.3477 30.698C71.7148 30.2398 71.9902 29.9648 71.9902 29.6899C71.9902 29.5066 71.6231 29.0485 71.4395 29.0485C71.1641 29.1401 70.7051 29.415 70.7051 29.5983C70.7969 29.7816 71.0723 30.1481 71.3477 30.698Z" fill="#161439"/>
    <path d="M55.1914 27.3989C55.7422 27.7655 56.0176 28.132 56.293 28.132C56.5683 28.132 56.8437 27.6738 56.9355 27.3989C56.9355 27.2156 56.5683 26.8491 56.3847 26.8491C56.0176 26.7574 55.7422 27.0324 55.1914 27.3989Z" fill="#161439"/>
    <path d="M28.8477 22.7254C29.3067 23.0004 29.5821 23.3669 29.8575 23.3669C30.0411 23.3669 30.4082 23.0004 30.4082 22.7254C30.5 22.3589 30.1329 21.9923 29.6739 22.084C29.4903 22.084 29.3067 22.3589 28.8477 22.7254Z" fill="#161439"/>
    <path d="M36.7422 23.8251C37.2011 24.1917 37.3847 24.4666 37.6601 24.4666C38.1191 24.5582 38.3945 24.2833 38.3945 23.8251C38.3945 23.5502 38.0273 23.1837 37.8437 23.1837C37.5683 23.2753 37.2929 23.5502 36.7422 23.8251Z" fill="#161439"/>
    <path d="M18.291 20.6177C18.6582 20.8926 18.8418 21.1675 19.1171 21.2591C19.5761 21.3508 19.8515 21.0759 19.8515 20.6177C19.8515 20.1595 19.5761 19.8846 19.1171 19.9762C18.8418 20.0678 18.6582 20.3427 18.291 20.6177Z" fill="#161439"/>
    <path d="M13.376 27.4238C13.376 27.4238 13.4676 27.4416 13.6509 27.4772C13.8367 27.4998 14.0463 27.5745 14.2797 27.7013C14.5156 27.8151 14.7114 27.9958 14.867 28.2434C15.0383 28.4804 15.1028 28.8121 15.0607 29.2386C15.0233 29.5709 14.9929 30.0065 14.9697 30.5453C14.949 31.071 14.9298 31.6241 14.912 32.2047C14.8942 32.7853 14.8763 33.332 14.8581 33.8446C14.8556 34.3467 14.85 34.7598 14.8413 35.0841C14.8457 35.411 14.8479 35.5744 14.8479 35.5744L16.3026 32.5973C16.3026 32.5973 16.3532 32.512 16.4542 32.3415C16.5578 32.1579 16.7125 31.991 16.9183 31.8409C17.1371 31.6932 17.4233 31.6538 17.7766 31.7225C18.13 31.7912 18.3844 31.9153 18.5396 32.0949C18.6974 32.2614 18.7965 32.4504 18.8369 32.662C18.8903 32.8762 18.9254 33.0799 18.9421 33.2734C18.956 33.4119 18.9716 33.6458 18.9891 33.9752C19.0222 34.294 19.0449 34.6313 19.0573 34.9868C19.0828 35.3449 19.1053 35.6481 19.125 35.8964C19.1446 36.1447 19.1545 36.2689 19.1545 36.2689L19.6479 34.6737L21.5944 29.0621C21.5944 29.0621 21.6502 28.9846 21.7618 28.8297C21.8891 28.6643 22.0936 28.5207 22.3753 28.3989C22.6702 28.2796 23.069 28.2892 23.5718 28.4277C24.3338 28.6302 24.7745 28.8788 24.8937 29.1737C25.0261 29.471 24.9899 29.7968 24.7853 30.1509C24.6842 30.3214 24.5085 30.7015 24.258 31.2913C24.0101 31.8679 23.7184 32.565 23.3829 33.3827C23.0474 34.2004 22.7095 35.0651 22.3692 35.9769C22.0315 36.8757 21.7224 37.7324 21.4418 38.5472C21.3055 38.9689 21.1228 39.2798 20.8938 39.4798C20.6804 39.6692 20.4666 39.7906 20.2525 39.8441C20.0383 39.8976 19.858 39.9168 19.7115 39.9019C19.565 39.887 19.4917 39.8796 19.4917 39.8796C19.4917 39.8796 19.4066 39.8631 19.2365 39.83C19.0638 39.81 18.8595 39.7431 18.6235 39.6293C18.4006 39.5181 18.1918 39.3349 17.9969 39.0797C17.8151 38.827 17.702 38.4655 17.6576 37.995C17.5819 37.0567 17.511 36.2686 17.4448 35.631C17.3786 34.9933 17.3455 34.6744 17.3455 34.6744L15.5973 37.7983C15.5973 37.7983 15.5428 37.8692 15.4337 38.011C15.3246 38.1528 15.1371 38.2793 14.8709 38.3906C14.6179 38.5044 14.2689 38.518 13.8239 38.4315C13.1564 38.3018 12.7121 38.1067 12.491 37.8464C12.2856 37.5756 12.158 37.1841 12.1081 36.6718C12.1019 36.494 12.0819 36.1777 12.0481 35.7229C12.0168 35.255 11.9864 34.7126 11.9569 34.0956C11.9274 33.4787 11.8939 32.8473 11.8564 32.2017C11.8215 31.5429 11.7895 30.939 11.7604 30.39C11.7338 29.828 11.7065 29.3744 11.6785 29.0294C11.6661 28.6738 11.6599 28.4961 11.6599 28.4961C11.6599 28.4961 11.6583 28.4346 11.655 28.3117C11.6517 28.1889 11.6915 28.054 11.7744 27.9071C11.8598 27.7471 12.0212 27.6155 12.2586 27.5122C12.5091 27.4115 12.8816 27.382 13.376 27.4238ZM32.9371 35.9937C32.7706 36.6405 32.4843 37.1349 32.0783 37.4771C31.6747 37.8061 31.217 38.0296 30.7051 38.1474C30.2089 38.2547 29.7241 38.3031 29.2507 38.2925C28.7799 38.2689 28.3874 38.2266 28.0733 38.1655C27.7723 38.107 27.6218 38.0778 27.6218 38.0778C27.6112 38.5511 27.6589 38.9 27.7647 39.1243C27.8705 39.3486 28.0059 39.4904 28.171 39.5496C28.3492 39.6114 28.5219 39.6314 28.6891 39.6096C28.8589 39.5747 28.9972 39.5268 29.1041 39.4661C29.2241 39.4079 29.284 39.3789 29.284 39.3789C29.284 39.3789 29.3675 39.334 29.5343 39.2441C29.7012 39.1543 29.9453 39.0863 30.2667 39.0401C30.6037 38.9834 31.0078 39.0008 31.479 39.0924C32.0156 39.1967 32.3616 39.3387 32.5168 39.5183C32.6877 39.6873 32.7488 39.8622 32.7001 40.0429C32.667 40.213 32.5972 40.3625 32.4907 40.4912C32.3998 40.6093 32.3544 40.6684 32.3544 40.6684C32.3544 40.6684 32.2828 40.7224 32.1395 40.8304C32.0119 40.9278 31.7876 41.0336 31.4666 41.1478C31.1456 41.262 30.7159 41.3415 30.1774 41.3862C29.6415 41.4179 28.9731 41.3626 28.1722 41.2205C27.3974 41.0835 26.7699 40.8529 26.2896 40.5286C25.8094 40.2044 25.4334 39.8325 25.1618 39.4129C24.8927 38.9803 24.7048 38.5499 24.5978 38.1216C24.5066 37.6828 24.4547 37.2856 24.4423 36.93C24.4456 36.5639 24.4663 36.2827 24.5045 36.0864C24.5426 35.8901 24.6053 35.6374 24.6926 35.3283C24.7929 35.0219 24.9416 34.7112 25.1386 34.3963C25.3513 34.0709 25.6321 33.7791 25.9811 33.521C26.3301 33.2628 26.7724 33.0839 27.3079 32.9843C27.8565 32.8872 28.5247 32.9084 29.3126 33.048C30.2967 33.2257 31.0459 33.4596 31.56 33.7497C32.074 34.0398 32.43 34.3399 32.6278 34.65C32.8256 34.9601 32.9278 35.238 32.9343 35.4838C32.954 35.7321 32.9549 35.9021 32.9371 35.9937ZM27.6102 36.6697C28.4213 36.7595 29.0499 36.7051 29.496 36.5065C29.9421 36.308 30.2309 36.0449 30.3625 35.7174C30.4941 35.3898 30.4846 35.0891 30.3341 34.8154C30.1992 34.5311 29.9394 34.3651 29.5548 34.3175C29.1727 34.2568 28.8567 34.3448 28.607 34.5815C28.3598 34.8051 28.1626 35.086 28.0153 35.4241C27.8707 35.7491 27.7663 36.0413 27.7024 36.3005C27.6409 36.5466 27.6102 36.6697 27.6102 36.6697ZM35.8762 30.9824C35.8762 30.9824 35.9007 30.9261 35.9498 30.8134C36.012 30.7032 36.1159 30.5876 36.2617 30.4665C36.4075 30.3454 36.6149 30.2567 36.8839 30.2003C37.1555 30.1309 37.506 30.1447 37.9353 30.2417C38.3385 30.3337 38.6218 30.4838 38.785 30.6921C38.9483 30.9004 39.0241 31.1393 39.0125 31.4087C39.0034 31.665 38.9407 31.9177 38.8244 32.1667C38.6641 32.5023 38.5276 32.8901 38.4149 33.33C38.3022 33.7699 38.2141 34.1534 38.1505 34.4807C38.1025 34.7973 38.0785 34.9557 38.0785 34.9557C39.1256 35.1592 39.9443 35.4542 40.5348 35.8406C41.1383 36.2296 41.5786 36.6547 41.8557 37.1161C42.1327 37.5774 42.2986 38.0171 42.3531 38.4352C42.4208 38.8559 42.4422 39.1996 42.4175 39.4665C42.3928 39.7333 42.3805 39.8667 42.3805 39.8667C42.3805 39.8667 42.3341 40.0004 42.2414 40.2676C42.1644 40.5243 42.0288 40.8375 41.8347 41.2072C41.6406 41.577 41.3744 41.9327 41.0364 42.2745C40.6983 42.6163 40.2735 42.8801 39.7619 43.0659C39.253 43.2386 38.6385 43.255 37.9187 43.1151C37.0156 42.9395 36.309 42.5916 35.7989 42.0714C35.3019 41.5537 34.9546 40.9293 34.7572 40.1982C34.5622 39.454 34.4704 38.6687 34.4816 37.8424C34.4954 37.0029 34.5668 36.1814 34.6958 35.378C34.8404 34.5639 35.0038 33.8283 35.1859 33.1709C35.3706 32.5005 35.5285 31.9675 35.6597 31.572C35.804 31.1789 35.8762 30.9824 35.8762 30.9824ZM37.62 36.4761C37.62 36.4761 37.5842 36.6253 37.5126 36.9238C37.4435 37.2092 37.3735 37.5692 37.3027 38.0036C37.2449 38.4406 37.2264 38.8853 37.2471 39.3375C37.2679 39.7898 37.3668 40.1893 37.5439 40.5362C37.7366 40.8725 38.0436 41.0748 38.465 41.1431C38.766 41.2016 39.0114 41.1271 39.2012 40.9194C39.3935 40.6988 39.5398 40.4352 39.6401 40.1287C39.7536 39.8247 39.8279 39.5471 39.8631 39.2959C39.8984 39.0447 39.9198 38.8995 39.9275 38.8602C39.9351 38.8209 39.9318 38.698 39.9176 38.4915C39.9191 38.2745 39.8589 38.0251 39.7371 37.7433C39.6309 37.451 39.4098 37.1907 39.0739 36.9625C38.7536 36.7236 38.2689 36.5615 37.62 36.4761ZM52.131 36.1999C51.9558 36.193 51.7098 36.1655 51.3932 36.1176C51.079 36.0565 50.7622 35.9745 50.4426 35.8717C50.123 35.7688 49.8556 35.6421 49.6404 35.4916C49.4277 35.328 49.3299 35.1324 49.347 34.9048C49.3771 34.6798 49.4769 34.5158 49.6463 34.4129C49.8288 34.3126 50.0311 34.25 50.2533 34.2253C50.478 34.1875 50.6701 34.1773 50.8297 34.1947C51.0049 34.2016 51.0926 34.2051 51.0926 34.2051L56.6889 34.7631C56.6889 34.7631 56.7805 34.781 56.9637 34.8166C57.1495 34.8391 57.3577 34.8864 57.5882 34.9583C57.8318 35.0328 58.0415 35.1415 58.2175 35.2844C58.396 35.4142 58.4715 35.585 58.4439 35.797C58.4293 36.0115 58.3295 36.1755 58.1445 36.2889C57.9751 36.3918 57.7768 36.4687 57.5495 36.5196C57.3249 36.5575 57.1302 36.5807 56.9655 36.5895C56.8033 36.5851 56.7223 36.5829 56.7223 36.5829L55.4276 36.535C55.4164 36.8724 55.385 37.3485 55.3334 37.9633C55.2843 38.565 55.2226 39.2321 55.1481 39.9647C55.0736 40.6973 54.9951 41.4155 54.9126 42.1194C54.8301 42.8232 54.7486 43.4526 54.6679 44.0074C54.6003 44.5647 54.5436 44.9612 54.4978 45.1968C54.4393 45.4978 54.3097 45.7103 54.109 45.8343C53.924 45.9477 53.7138 46.0156 53.4786 46.0377C53.259 46.0494 53.0629 46.0452 52.8902 46.0252C52.7331 45.9947 52.6546 45.9794 52.6546 45.9794C52.6546 45.9794 52.5695 45.9629 52.3994 45.9298C52.2318 45.8837 52.0456 45.7932 51.8409 45.6583C51.6493 45.526 51.4926 45.3189 51.3708 45.0372C51.2621 44.758 51.2561 44.3697 51.3527 43.8723C51.4392 43.4273 51.5186 42.8791 51.591 42.2276C51.6763 41.5786 51.7525 40.9075 51.8193 40.2141C51.8887 39.5077 51.9414 38.8524 51.9774 38.2482C52.0264 37.6465 52.0604 37.1573 52.0792 36.7807C52.1138 36.3935 52.131 36.1999 52.131 36.1999ZM66.3162 42.4819C66.1498 43.1287 65.8635 43.6232 65.4574 43.9653C65.0539 44.2944 64.5962 44.5178 64.0843 44.6356C63.588 44.7429 63.1032 44.7913 62.6299 44.7808C62.1591 44.7572 61.7666 44.7149 61.4525 44.6538C61.1514 44.5953 61.0009 44.566 61.0009 44.566C60.9904 45.0394 61.0381 45.3882 61.1439 45.6125C61.2497 45.8368 61.3851 45.9786 61.5502 46.0379C61.7283 46.0997 61.901 46.1196 62.0682 46.0978C62.238 46.0629 62.3764 46.0151 62.4832 45.9544C62.6032 45.8962 62.6632 45.8671 62.6632 45.8671C62.6632 45.8671 62.7466 45.8222 62.9135 45.7324C63.0804 45.6426 63.3245 45.5746 63.6459 45.5284C63.9829 45.4717 64.387 45.4891 64.8582 45.5807C65.3948 45.685 65.7407 45.8269 65.896 46.0065C66.0669 46.1756 66.128 46.3504 66.0793 46.5311C66.0462 46.7013 65.9764 46.8507 65.8699 46.9794C65.779 47.0976 65.7336 47.1567 65.7336 47.1567C65.7336 47.1567 65.6619 47.2106 65.5187 47.3186C65.3911 47.4161 65.1668 47.5219 64.8458 47.6361C64.5248 47.7502 64.095 47.8297 63.5566 47.8745C63.0207 47.9061 62.3523 47.8509 61.5514 47.7088C60.7766 47.5718 60.1491 47.3411 59.6688 47.0169C59.1885 46.6926 58.8126 46.3207 58.541 45.9012C58.2719 45.4686 58.0839 45.0381 57.977 44.6098C57.8857 44.171 57.8339 43.7738 57.8215 43.4183C57.8248 43.0522 57.8455 42.771 57.8836 42.5746C57.9218 42.3783 57.9845 42.1256 58.0717 41.8166C58.172 41.5101 58.3207 41.1994 58.5177 40.8846C58.7304 40.5592 59.0112 40.2674 59.3602 40.0093C59.7093 39.7511 60.1515 39.5722 60.687 39.4726C61.2356 39.3754 61.9039 39.3967 62.6917 39.5362C63.6759 39.714 64.425 39.9479 64.9391 40.2379C65.4532 40.528 65.8091 40.8281 66.0069 41.1382C66.2047 41.4483 66.3069 41.7263 66.3135 41.9721C66.3331 42.2204 66.334 42.3903 66.3162 42.4819ZM60.9894 43.158C61.8005 43.2477 62.4291 43.1933 62.8752 42.9948C63.3212 42.7962 63.6101 42.5332 63.7417 42.2056C63.8733 41.878 63.8638 41.5774 63.7132 41.3036C63.5783 41.0193 63.3186 40.8534 62.9339 40.8058C62.5518 40.7451 62.2359 40.8331 61.9861 41.0698C61.7389 41.2934 61.5417 41.5742 61.3945 41.9124C61.2498 42.2374 61.1455 42.5295 61.0815 42.7888C61.0201 43.0349 60.9894 43.158 60.9894 43.158ZM74.1901 45.5202C73.6796 45.4209 73.3181 45.2895 73.1054 45.126C72.9083 44.9518 72.7898 44.793 72.7498 44.6493C72.7229 44.5083 72.7132 44.4181 72.7209 44.3789C72.7285 44.3396 72.7176 44.256 72.6881 44.128C72.6718 44.0026 72.6214 43.8773 72.537 43.7523C72.4552 43.6141 72.3293 43.5285 72.1591 43.4954C71.9915 43.4493 71.805 43.5353 71.5996 43.7534C71.3942 43.9716 71.2048 44.2472 71.0314 44.5802C70.8606 44.9001 70.7315 45.2146 70.6443 45.5237C70.5701 45.8352 70.5405 46.1623 70.5554 46.5047C70.5835 46.8498 70.6609 47.1501 70.7878 47.4056C70.9173 47.6481 71.0985 47.7988 71.3316 47.8577C71.6824 47.9395 71.9085 47.9291 72.01 47.8266C72.1139 47.7109 72.1659 47.6531 72.1659 47.6531C72.1659 47.6531 72.1866 47.6164 72.2281 47.543C72.2721 47.4564 72.3631 47.3723 72.5013 47.2905C72.6525 47.2112 72.8719 47.1655 73.1595 47.1535C73.4496 47.1284 73.8486 47.172 74.3565 47.2843C74.8644 47.3966 75.1986 47.5295 75.3589 47.6829C75.5192 47.8363 75.5854 47.985 75.5574 48.129C75.5425 48.2755 75.4922 48.3948 75.4064 48.4868C75.3206 48.5787 75.2777 48.6247 75.2777 48.6247C75.2777 48.6247 75.1695 48.692 74.9532 48.8265C74.7369 48.9611 74.4304 49.1052 74.0338 49.259C73.6503 49.4154 73.1933 49.5303 72.6628 49.6038C72.1324 49.6773 71.5465 49.6517 70.9052 49.527C69.6356 49.2802 68.6952 48.7375 68.084 47.8988C67.4859 47.0626 67.2841 46.0047 67.4785 44.7249C67.5745 44.0916 67.7951 43.5504 68.1405 43.1014C68.4858 42.6524 68.901 42.2984 69.386 42.0395C69.8735 41.7676 70.3903 41.5896 70.9363 41.5056C71.4849 41.4085 72.0039 41.3939 72.4933 41.4618C72.9957 41.5323 73.4529 41.6959 73.8648 41.9526C74.2793 42.1961 74.6365 42.4897 74.9365 42.8332C75.2495 43.1793 75.4881 43.5245 75.652 43.8688C75.816 44.2131 75.8857 44.5186 75.861 44.7855C75.8388 45.0393 75.7418 45.2241 75.5698 45.3401C75.4109 45.4587 75.2204 45.5303 74.9983 45.555C74.7918 45.5692 74.6087 45.5676 74.4491 45.5501C74.2895 45.5327 74.2032 45.5227 74.1901 45.5202ZM76.5471 48.8715L78.1967 39.1272C78.1967 39.1272 78.2068 39.0748 78.2272 38.9701C78.2606 38.868 78.3306 38.7525 78.4371 38.6238C78.5436 38.4951 78.7052 38.3975 78.9219 38.331C79.1517 38.267 79.4629 38.2731 79.8555 38.3494C80.3791 38.4512 80.7537 38.5852 80.9795 38.7513C81.2184 38.92 81.3593 39.1036 81.4022 39.3021C81.4451 39.5006 81.4422 39.6902 81.3935 39.8709C81.355 39.9992 81.3001 40.2466 81.2289 40.6131C81.1733 40.969 81.106 41.3498 81.0271 41.7556C80.9639 42.1508 80.9043 42.4923 80.8483 42.7803C80.8055 43.0708 80.784 43.216 80.784 43.216C80.784 43.216 80.9213 43.2087 81.1957 43.1942C81.4833 43.1822 81.8456 43.205 82.2826 43.2628C82.7196 43.3206 83.1675 43.462 83.6264 43.687C84.0877 43.8989 84.4975 44.2367 84.8556 44.7002C84.9873 44.8616 85.0645 45.1279 85.0875 45.4991C85.1235 45.8728 85.1219 46.3004 85.0826 46.7817C85.059 47.2526 85.012 47.7392 84.9415 48.2416C84.8735 48.731 84.7988 49.1851 84.7174 49.6039C84.6491 50.0253 84.5829 50.3656 84.519 50.6248C84.4681 50.8866 84.4427 51.0175 84.4427 51.0175C84.4427 51.0175 84.4312 51.0763 84.4083 51.1941C84.388 51.2989 84.3311 51.4168 84.2376 51.5481C84.1573 51.6819 84.0141 51.7899 83.8079 51.872C83.6043 51.9411 83.3128 51.9388 82.9332 51.865C82.4358 51.7683 82.107 51.6433 81.9467 51.4899C81.7863 51.3365 81.7187 51.1603 81.7438 50.9614C81.7714 50.7495 81.8093 50.5192 81.8577 50.2705C81.8857 50.1265 81.9249 49.8897 81.9754 49.5599C82.026 49.2302 82.0828 48.8677 82.1461 48.4725C82.2118 48.0642 82.2738 47.6755 82.3319 47.3065C82.3901 46.9375 82.4355 46.6339 82.4682 46.3958C82.5009 46.1577 82.5173 46.0386 82.5173 46.0386C82.5173 46.0386 82.5195 45.9575 82.5238 45.7954C82.5438 45.6227 82.5102 45.4464 82.4229 45.2664C82.3356 45.0864 82.1533 44.9763 81.8759 44.936C81.6639 44.9083 81.4682 44.9722 81.2886 45.1274C81.1115 45.2696 80.9518 45.4626 80.8093 45.7066C80.6824 45.94 80.5764 46.1707 80.4914 46.3986C80.4088 46.6135 80.3574 46.7733 80.3371 46.878C80.3167 46.9827 80.276 47.1921 80.2149 47.5063C80.167 47.8229 80.1074 48.1645 80.0361 48.531C79.9674 48.8843 79.9077 49.1919 79.8568 49.4537C79.8215 49.7049 79.8039 49.8305 79.8039 49.8305C79.8039 49.8305 79.7834 49.9012 79.7423 50.0427C79.7038 50.171 79.6209 50.3179 79.4936 50.4833C79.3664 50.6487 79.171 50.7806 78.9074 50.8787C78.6595 50.9664 78.3196 50.9682 77.8876 50.8842C77.3903 50.7876 77.0338 50.63 76.8182 50.4115C76.6157 50.1956 76.4968 49.9687 76.4615 49.7309C76.4393 49.4957 76.4447 49.293 76.4778 49.1229C76.524 48.9553 76.5471 48.8715 76.5471 48.8715Z" fill="#5751E1"/>
    </g>
    </g>
    </g>
    <defs>
    <clipPath id="clip0_6512_1987">
    <rect width="103" height="78" fill="white" transform="translate(0 0.109985)"/>
    </clipPath>
    <clipPath id="clip1_6512_1987">
    <rect width="103" height="78" fill="white"/>
    </clipPath>
    <clipPath id="clip2_6512_1987">
    <rect width="103" height="78" fill="white"/>
    </clipPath>
    </defs>
    </svg>
    